<svg preserveAspectRatio="none" width="100%" height="100%" overflow="visible" style="display: block;" viewBox="0 0 318 331" fill="none" xmlns="http://www.w3.org/2000/svg">
<g id="DrawKit Vector Illustration Food Delivery (10) 1">
<path id="Vector" fill-rule="evenodd" clip-rule="evenodd" d="M148.13 0.223955C189.47 4.05647 197.424 61.2145 226.719 90.6217C255.881 119.896 308.551 128.623 316.436 169.176C324.865 212.528 298.041 256.728 264.635 285.63C233.167 312.856 189.747 314.406 148.13 314.793C105.953 315.186 59.3197 317.573 29.4381 287.817C-0.473854 258.031 -2.82895 211.115 1.89788 169.176C6.07967 132.073 29.0344 102.797 53.4739 74.5607C80.7659 43.0285 106.595 -3.62662 148.13 0.223955Z" fill="var(--fill-0, #EBFFFF)"/>
<path id="Vector_2" d="M20.9903 306.664C20.9851 309.23 21.4855 311.772 22.4627 314.144C23.4399 316.516 24.8749 318.673 26.6857 320.491C28.4965 322.309 30.6476 323.752 33.0162 324.738C35.3848 325.725 37.9245 326.235 40.4903 326.239H117.596C120.16 326.239 122.699 325.734 125.067 324.753C127.436 323.772 129.588 322.334 131.401 320.521C133.213 318.708 134.651 316.555 135.632 314.187C136.613 311.818 137.118 309.279 137.117 306.715V55.3003H20.9903V306.664Z" fill="var(--fill-0, #FFEAC0)"/>
<path id="Vector_3" d="M117.596 35.7607H40.5142C35.3345 35.7639 30.3681 37.824 26.7069 41.488C23.0457 45.152 20.9894 50.12 20.9902 55.2997H137.117C137.12 50.124 135.068 45.1589 131.411 41.496C127.755 37.8331 122.793 35.7723 117.617 35.7667L117.596 35.7607Z" fill="var(--fill-0, #21633D)"/>
<path id="Vector_4" d="M94.1658 48.565C96.0645 48.565 97.6038 47.0257 97.6038 45.127C97.6038 43.2282 96.0645 41.689 94.1658 41.689C92.267 41.689 90.7278 43.2282 90.7278 45.127C90.7278 47.0257 92.267 48.565 94.1658 48.565Z" fill="var(--fill-0, #FFC043)"/>
<path id="Vector_5" d="M108.251 48.565C110.15 48.565 111.689 47.0258 111.689 45.127C111.689 43.2282 110.15 41.689 108.251 41.689C106.352 41.689 104.813 43.2282 104.813 45.127C104.813 47.0258 106.352 48.565 108.251 48.565Z" fill="var(--fill-0, #47B275)"/>
<path id="Vector_6" d="M122.327 48.565C124.225 48.565 125.765 47.0257 125.765 45.127C125.765 43.2282 124.225 41.689 122.327 41.689C120.428 41.689 118.889 43.2282 118.889 45.127C118.889 47.0257 120.428 48.565 122.327 48.565Z" fill="var(--fill-0, #FF7D49)"/>
<path id="Vector_7" d="M63.1222 228.607C62.839 228.607 62.5673 228.494 62.367 228.294C62.1667 228.094 62.0542 227.822 62.0542 227.539V223.267C62.0542 222.983 62.1667 222.712 62.367 222.512C62.5673 222.311 62.839 222.199 63.1222 222.199C63.4055 222.199 63.6771 222.311 63.8774 222.512C64.0777 222.712 64.1902 222.983 64.1902 223.267V227.539C64.1902 227.822 64.0777 228.094 63.8774 228.294C63.6771 228.494 63.4055 228.607 63.1222 228.607V228.607Z" fill="var(--fill-0, #21633D)"/>
<path id="Vector_8" d="M63.1427 256.021C62.8595 256.021 62.5878 255.909 62.3875 255.708C62.1872 255.508 62.0747 255.237 62.0747 254.953V248.107C62.0747 247.967 62.1024 247.828 62.1561 247.699C62.2098 247.57 62.2885 247.452 62.3877 247.353C62.4869 247.254 62.6047 247.176 62.7342 247.122C62.8638 247.069 63.0026 247.042 63.1427 247.042V247.042C63.4254 247.042 63.6966 247.154 63.8968 247.354C64.097 247.554 64.2099 247.825 64.2107 248.107V254.965C64.2099 255.248 64.0971 255.519 63.897 255.72C63.6969 255.92 63.4257 256.032 63.1427 256.033V256.021ZM63.1427 242.32C62.8595 242.32 62.5878 242.208 62.3875 242.007C62.1872 241.807 62.0747 241.536 62.0747 241.252V234.4C62.0747 234.117 62.1872 233.845 62.3875 233.645C62.5878 233.445 62.8595 233.332 63.1427 233.332C63.426 233.332 63.6976 233.445 63.8979 233.645C64.0982 233.845 64.2107 234.117 64.2107 234.4V241.255C64.2107 241.539 64.0982 241.81 63.8979 242.01C63.6976 242.211 63.426 242.323 63.1427 242.323V242.323V242.32Z" fill="var(--fill-0, #21633D)"/>
<path id="Vector_9" d="M62.096 266.083V261.811C62.096 261.528 62.2085 261.256 62.4088 261.056C62.609 260.856 62.8807 260.743 63.1639 260.743V260.743C63.4472 260.743 63.7188 260.856 63.9191 261.056C64.1194 261.256 64.2319 261.528 64.2319 261.811V266.083H62.096Z" fill="var(--fill-0, #21633D)"/>
<path id="Vector_10" d="M63.1522 256.951C62.869 256.951 62.5973 256.838 62.397 256.638C62.1967 256.438 62.0842 256.166 62.0842 255.883V249.955C62.085 249.672 62.1978 249.401 62.3979 249.2C62.598 249 62.8692 248.887 63.1522 248.887V248.887C63.4355 248.887 63.7071 248.999 63.9074 249.2C64.1077 249.4 64.2202 249.671 64.2202 249.955V255.883C64.2202 256.166 64.1077 256.438 63.9074 256.638C63.7071 256.838 63.4355 256.951 63.1522 256.951V256.951Z" fill="var(--fill-0, #21633D)"/>
<path id="Vector_11" d="M63.1308 245.077C62.8478 245.076 62.5766 244.963 62.3765 244.763C62.1763 244.563 62.0636 244.292 62.0628 244.009V240.805H58.8588C58.5755 240.805 58.3039 240.692 58.1036 240.492C57.9033 240.292 57.7908 240.02 57.7908 239.737C57.7908 239.454 57.9033 239.182 58.1036 238.982C58.3039 238.781 58.5755 238.669 58.8588 238.669L64.1988 238.603V243.943C64.1988 244.226 64.0863 244.498 63.886 244.698C63.6857 244.898 63.414 245.011 63.1308 245.011V245.077Z" fill="var(--fill-0, #21633D)"/>
<path id="Vector_12" d="M49.055 240.88H44.786C44.5028 240.88 44.2311 240.768 44.0308 240.567C43.8305 240.367 43.718 240.095 43.718 239.812C43.718 239.529 43.8305 239.257 44.0308 239.057C44.2311 238.857 44.5028 238.744 44.786 238.744H49.055C49.3383 238.744 49.6099 238.857 49.8102 239.057C50.0105 239.257 50.123 239.529 50.123 239.812C50.123 240.095 50.0105 240.367 49.8102 240.567C49.6099 240.768 49.3383 240.88 49.055 240.88V240.88Z" fill="var(--fill-0, #21633D)"/>
<path id="Vector_13" d="M38.0001 126.022C37.7169 126.022 37.4452 125.909 37.2449 125.709C37.0446 125.509 36.9321 125.237 36.9321 124.954V120.7C36.9321 120.417 37.0446 120.145 37.2449 119.945C37.4452 119.744 37.7169 119.632 38.0001 119.632C38.2834 119.632 38.555 119.744 38.7553 119.945C38.9556 120.145 39.0681 120.417 39.0681 120.7V124.969C39.0642 125.249 38.9499 125.517 38.7501 125.714C38.5502 125.911 38.2808 126.022 38.0001 126.022V126.022Z" fill="var(--fill-0, #21633D)"/>
<path id="Vector_14" d="M40.1297 117.181C39.9858 117.209 39.8376 117.208 39.6943 117.177C39.551 117.146 39.4155 117.086 39.2961 117.001C39.1767 116.916 39.0758 116.807 38.9998 116.682C38.9237 116.556 38.8739 116.417 38.8535 116.271C38.8331 116.126 38.8425 115.978 38.8811 115.837C38.9197 115.695 38.9867 115.563 39.0781 115.449C39.1694 115.334 39.2832 115.239 39.4124 115.17C39.5416 115.1 39.6836 115.058 39.8297 115.045C40.2188 114.927 40.623 114.865 41.0297 114.862H45.6407C45.924 114.862 46.1956 114.975 46.3959 115.175C46.5962 115.375 46.7087 115.647 46.7087 115.93C46.7087 116.214 46.5962 116.485 46.3959 116.686C46.1956 116.886 45.924 116.998 45.6407 116.998H41.0267C40.8306 117 40.6357 117.029 40.4477 117.085C40.3474 117.134 40.2401 117.166 40.1297 117.181V117.181Z" fill="var(--fill-0, #21633D)"/>
<path id="Vector_15" d="M55.433 117.043H51.161C50.8778 117.043 50.6061 116.93 50.4058 116.73C50.2055 116.53 50.093 116.258 50.093 115.975C50.093 115.692 50.2055 115.42 50.4058 115.22C50.6061 115.02 50.8778 114.907 51.161 114.907H55.433C55.7163 114.907 55.9879 115.02 56.1882 115.22C56.3885 115.42 56.501 115.692 56.501 115.975C56.501 116.258 56.3885 116.53 56.1882 116.73C55.9879 116.93 55.7163 117.043 55.433 117.043Z" fill="var(--fill-0, #21633D)"/>
<path id="Vector_16" d="M113.27 83.8181H108.998C108.715 83.8181 108.443 83.7056 108.243 83.5053C108.043 83.305 107.93 83.0334 107.93 82.7501C107.93 82.4669 108.043 82.1952 108.243 81.9949C108.443 81.7946 108.715 81.6821 108.998 81.6821H113.27C113.553 81.6821 113.825 81.7946 114.025 81.9949C114.226 82.1952 114.338 82.4669 114.338 82.7501C114.338 83.0334 114.226 83.305 114.025 83.5053C113.825 83.7056 113.553 83.8181 113.27 83.8181V83.8181Z" fill="var(--fill-0, #21633D)"/>
<path id="Vector_17" d="M95.9178 85.7531C95.7197 85.7523 95.5257 85.6965 95.3574 85.592C95.189 85.4875 95.053 85.3383 94.9644 85.1611C94.8758 84.9839 94.8381 84.7856 94.8554 84.5882C94.8728 84.3908 94.9446 84.2021 95.0628 84.0431V84.0431C95.6047 83.3154 96.308 82.7234 97.1175 82.3137C97.927 81.904 98.8206 81.6878 99.7278 81.6821H102.155C102.438 81.6821 102.71 81.7946 102.91 81.9949C103.11 82.1952 103.223 82.4669 103.223 82.7501C103.223 83.0334 103.11 83.305 102.91 83.5053C102.71 83.7056 102.438 83.8181 102.155 83.8181H99.7278C99.1589 83.8232 98.599 83.9616 98.0931 84.2221C97.5873 84.4825 97.1495 84.8579 96.8148 85.3181C96.7114 85.4576 96.5759 85.5699 96.4197 85.6457C96.2635 85.7214 96.0913 85.7583 95.9178 85.7531Z" fill="var(--fill-0, #21633D)"/>
<path id="Vector_18" d="M94.976 96.7C94.693 96.6992 94.4218 96.5864 94.2217 96.3863C94.0216 96.1862 93.9088 95.915 93.908 95.632V91.348C93.908 91.0648 94.0205 90.7931 94.2208 90.5928C94.4211 90.3925 94.6928 90.28 94.976 90.28C95.2593 90.28 95.5309 90.3925 95.7312 90.5928C95.9315 90.7931 96.044 91.0648 96.044 91.348V95.62C96.0456 95.7613 96.0191 95.9014 95.9662 96.0324C95.9132 96.1634 95.8348 96.2825 95.7355 96.383C95.6361 96.4834 95.5179 96.5631 95.3875 96.6176C95.2571 96.672 95.1173 96.7 94.976 96.7Z" fill="var(--fill-0, #21633D)"/>
<path id="Vector_19" d="M122.135 91.636C127.031 91.636 131 87.667 131 82.771C131 77.875 127.031 73.906 122.135 73.906C117.239 73.906 113.27 77.875 113.27 82.771C113.27 87.667 117.239 91.636 122.135 91.636Z" fill="var(--fill-0, #FF7D49)"/>
<path id="Vector_20" d="M48.0498 134.047C48.213 129.153 44.3785 125.054 39.4852 124.891C34.5919 124.728 30.4928 128.562 30.3296 133.456C30.1665 138.349 34.001 142.448 38.8943 142.611C43.7875 142.774 47.8866 138.94 48.0498 134.047Z" fill="var(--fill-0, #2D784E)"/>
<path id="Vector_21" d="M36.1548 248.302C41.0508 248.302 45.0198 244.333 45.0198 239.437C45.0198 234.541 41.0508 230.572 36.1548 230.572C31.2588 230.572 27.2898 234.541 27.2898 239.437C27.2898 244.333 31.2588 248.302 36.1548 248.302Z" fill="var(--fill-0, #FF9F75)"/>
<path id="Vector_22" d="M106.145 273.685H53.2428C51.9389 273.685 50.8818 274.742 50.8818 276.046V281.95C50.8818 283.254 51.9389 284.311 53.2428 284.311H106.145C107.449 284.311 108.506 283.254 108.506 281.95V276.046C108.506 274.742 107.449 273.685 106.145 273.685Z" fill="var(--fill-0, #FFAFC4)"/>
<path id="Vector_23" d="M107.741 284.311H50.381C48.2403 284.311 46.505 286.046 46.505 288.187V292.576C46.505 294.717 48.2403 296.452 50.381 296.452H107.741C109.882 296.452 111.617 294.717 111.617 292.576V288.187C111.617 286.046 109.882 284.311 107.741 284.311Z" fill="var(--fill-0, #FFAFC4)"/>
<path id="Vector_24" d="M111.254 296.452H46.8682C44.2438 296.452 42.1162 298.579 42.1162 301.204V305.038C42.1162 307.662 44.2438 309.79 46.8682 309.79H111.254C113.879 309.79 116.006 307.662 116.006 305.038V301.204C116.006 298.579 113.879 296.452 111.254 296.452Z" fill="var(--fill-0, #FFAFC4)"/>
<path id="Vector_25" d="M108.902 297.52H49.202C49.0572 297.527 48.9123 297.506 48.7762 297.455C48.6401 297.405 48.5157 297.328 48.4105 297.228C48.3053 297.128 48.2215 297.008 48.1642 296.875C48.1069 296.742 48.0774 296.598 48.0774 296.453C48.0774 296.308 48.1069 296.165 48.1642 296.032C48.2215 295.898 48.3053 295.778 48.4105 295.678C48.5157 295.579 48.6401 295.501 48.7762 295.451C48.9123 295.401 49.0572 295.379 49.202 295.387H108.902C109.047 295.379 109.192 295.401 109.328 295.451C109.464 295.501 109.588 295.579 109.693 295.678C109.799 295.778 109.883 295.898 109.94 296.032C109.997 296.165 110.027 296.308 110.027 296.453C110.027 296.598 109.997 296.742 109.94 296.875C109.883 297.008 109.799 297.128 109.693 297.228C109.588 297.328 109.464 297.405 109.328 297.455C109.192 297.506 109.047 297.527 108.902 297.52V297.52Z" fill="var(--fill-0, #F23838)"/>
<path id="Vector_26" d="M101.693 285.784H52.4208C52.1375 285.784 51.8659 285.672 51.6656 285.471C51.4653 285.271 51.3528 284.999 51.3528 284.716C51.3528 284.433 51.4653 284.161 51.6656 283.961C51.8659 283.761 52.1375 283.648 52.4208 283.648H101.693C101.976 283.648 102.248 283.761 102.448 283.961C102.648 284.161 102.761 284.433 102.761 284.716C102.761 284.999 102.648 285.271 102.448 285.471C102.248 285.672 101.976 285.784 101.693 285.784V285.784Z" fill="var(--fill-0, #F23838)"/>
<path id="Vector_27" d="M53.3001 273.814H58.5771V284.344C58.5771 285.194 58.2396 286.009 57.6387 286.61C57.0378 287.211 56.2229 287.548 55.3731 287.548H54.1131C53.6916 287.549 53.274 287.467 52.8843 287.307C52.4945 287.146 52.1402 286.911 51.8418 286.613C51.5433 286.315 51.3065 285.962 51.1449 285.572C50.9833 285.183 50.9001 284.766 50.9001 284.344V284.344V276.205C50.9001 275.569 51.153 274.958 51.6031 274.508C52.0532 274.058 52.6636 273.805 53.3001 273.805V273.814Z" fill="var(--fill-0, #21633D)"/>
<path id="Vector_28" d="M68.3867 273.814H79.7267V296.239C79.7267 296.857 79.6049 297.47 79.3682 298.041C79.1315 298.613 78.7846 299.132 78.3472 299.569C77.9098 300.007 77.3906 300.354 76.8192 300.59C76.2477 300.827 75.6352 300.949 75.0167 300.949H73.0997C72.4812 300.949 71.8687 300.827 71.2973 300.59C70.7258 300.354 70.2066 300.007 69.7692 299.569C69.3319 299.132 68.9849 298.613 68.7482 298.041C68.5115 297.47 68.3897 296.857 68.3897 296.239V296.239V273.814H68.3867Z" fill="var(--fill-0, #21633D)"/>
<path id="Vector_29" d="M84.713 273.814H97.166V289.072C97.166 292.309 95.129 294.934 92.618 294.934H89.264C86.75 294.934 84.713 292.309 84.713 289.072V273.814Z" fill="var(--fill-0, #21633D)"/>
<path id="Vector_30" d="M96.0767 273.814H106.853C107.305 273.814 107.74 273.994 108.06 274.314C108.38 274.634 108.56 275.068 108.56 275.521V281.821C108.56 282.435 108.439 283.043 108.204 283.611C107.969 284.178 107.624 284.694 107.19 285.128C106.755 285.562 106.24 285.907 105.672 286.142C105.105 286.377 104.497 286.498 103.883 286.498H96.0827V273.814H96.0767Z" fill="var(--fill-0, #21633D)"/>
<path id="Vector_31" d="M53.744 272.425H105.644C106.02 272.419 106.393 272.488 106.742 272.627C107.092 272.765 107.41 272.972 107.68 273.233C107.95 273.495 108.165 273.808 108.314 274.153C108.463 274.498 108.543 274.869 108.548 275.245V277.744H50.9V275.287C50.9 274.531 51.199 273.806 51.7319 273.27C52.2647 272.733 52.9881 272.43 53.744 272.425Z" fill="var(--fill-0, #21633D)"/>
<path id="Vector_32" d="M85.922 277.732C88.1904 277.726 90.3716 276.857 92.0234 275.303C93.6751 273.748 94.6739 271.623 94.817 269.359C94.8562 268.524 94.7805 267.687 94.592 266.872C94.529 266.605 94.454 266.35 94.367 266.092C94.223 265.68 94.0485 265.279 93.845 264.892L93.653 264.52L89.573 256.489C89.2386 255.841 88.7325 255.298 88.1099 254.919C87.4874 254.54 86.7725 254.339 86.0435 254.339C85.3145 254.339 84.5996 254.54 83.9771 254.919C83.3545 255.298 82.8484 255.841 82.514 256.489V256.543C81.35 258.763 80.474 260.365 79.31 262.876C78.71 264.115 78.242 265.213 77.849 266.08C77.4516 266.985 77.2472 267.963 77.249 268.951V268.951C77.2581 271.258 78.1714 273.47 79.7929 275.112C81.4144 276.754 83.6148 277.694 85.922 277.732Z" fill="var(--fill-0, #F23838)"/>
<path id="Vector_33" d="M82.364 269.992C83.2554 269.992 83.978 269.269 83.978 268.378C83.978 267.486 83.2554 266.764 82.364 266.764C81.4726 266.764 80.75 267.486 80.75 268.378C80.75 269.269 81.4726 269.992 82.364 269.992Z" fill="var(--fill-0, #FFC3D3)"/>
<path id="Vector_34" d="M88.2593 274.039C89.1507 274.039 89.8733 273.316 89.8733 272.425C89.8733 271.534 89.1507 270.811 88.2593 270.811C87.3679 270.811 86.6453 271.534 86.6453 272.425C86.6453 273.316 87.3679 274.039 88.2593 274.039Z" fill="var(--fill-0, #FFC3D3)"/>
<path id="Vector_35" d="M90.5268 265.31C90.5901 264.421 89.9206 263.649 89.0314 263.586C88.1423 263.523 87.3702 264.192 87.3069 265.081C87.2437 265.97 87.9132 266.742 88.8023 266.806C89.6915 266.869 90.4635 266.199 90.5268 265.31Z" fill="var(--fill-0, #FFC3D3)"/>
<path id="Vector_36" d="M68.3002 277.732C70.5687 277.726 72.7499 276.857 74.4016 275.302C76.0534 273.748 77.0521 271.623 77.1952 269.359C77.2376 268.523 77.1587 267.685 76.9612 266.872C76.8982 266.605 76.8232 266.35 76.7362 266.092C76.5916 265.681 76.4202 265.28 76.2232 264.892L76.0222 264.52L71.9422 256.489C71.6079 255.841 71.1017 255.298 70.4791 254.919C69.8566 254.539 69.1417 254.339 68.4127 254.339C67.6838 254.339 66.9689 254.539 66.3463 254.919C65.7238 255.298 65.2176 255.841 64.8832 256.489V256.543C63.7192 258.763 62.8432 260.365 61.6792 262.876C61.0792 264.115 60.6112 265.213 60.2152 266.08C59.8209 266.986 59.6166 267.963 59.6152 268.951V268.951C59.6252 271.26 60.5404 273.473 62.1643 275.115C63.7882 276.757 65.9912 277.697 68.3002 277.732V277.732Z" fill="var(--fill-0, #F23838)"/>
<path id="Vector_37" d="M64.7331 269.992C65.6245 269.992 66.3471 269.269 66.3471 268.378C66.3471 267.486 65.6245 266.764 64.7331 266.764C63.8418 266.764 63.1191 267.486 63.1191 268.378C63.1191 269.269 63.8418 269.992 64.7331 269.992Z" fill="var(--fill-0, #FFC3D3)"/>
<path id="Vector_38" d="M70.64 274.039C71.5314 274.039 72.254 273.316 72.254 272.425C72.254 271.534 71.5314 270.811 70.64 270.811C69.7486 270.811 69.026 271.534 69.026 272.425C69.026 273.316 69.7486 274.039 70.64 274.039Z" fill="var(--fill-0, #FFC3D3)"/>
<path id="Vector_39" d="M71.2788 266.788C72.1702 266.788 72.8928 266.065 72.8928 265.174C72.8928 264.283 72.1702 263.56 71.2788 263.56C70.3874 263.56 69.6648 264.283 69.6648 265.174C69.6648 266.065 70.3874 266.788 71.2788 266.788Z" fill="var(--fill-0, #FFC3D3)"/>
<path id="Vector_40" d="M99.0508 184.144C100.819 179.891 100.249 175.61 97.7768 174.582C95.3046 173.554 91.8667 176.168 90.0981 180.421C88.3295 184.674 88.8999 188.955 91.3721 189.984C93.8444 191.012 97.2822 188.397 99.0508 184.144Z" fill="var(--fill-0, #21633D)"/>
<path id="Vector_41" d="M87.61 188.347C91.2717 184.956 88.9899 176.538 82.5135 169.544C76.0372 162.55 67.8187 159.63 64.1571 163.02C60.4954 166.411 62.7772 174.829 69.2536 181.823C75.7299 188.817 83.9484 191.738 87.61 188.347Z" fill="var(--fill-0, #21633D)"/>
<path id="Vector_42" d="M65.4208 202.081C66.7066 199.732 64.4737 196.035 60.4336 193.823C56.3934 191.612 52.0758 191.722 50.79 194.071C49.5043 196.419 51.7371 200.116 55.7773 202.328C59.8175 204.54 64.1351 204.43 65.4208 202.081Z" fill="var(--fill-0, #21633D)"/>
<path id="Vector_43" d="M85.5677 187.633C85.424 187.631 85.282 187.601 85.1502 187.544C85.0183 187.487 84.8991 187.404 84.7997 187.3L63.7607 164.98C63.6502 164.887 63.5596 164.773 63.4944 164.644C63.4292 164.516 63.3908 164.375 63.3814 164.231C63.372 164.087 63.3919 163.943 63.4399 163.807C63.4878 163.671 63.5628 163.546 63.6604 163.44C63.7579 163.333 63.876 163.248 64.0075 163.188C64.1389 163.129 64.2811 163.097 64.4253 163.094C64.5695 163.091 64.7129 163.117 64.8466 163.171C64.9804 163.225 65.1019 163.306 65.2037 163.408C65.2433 163.44 65.2786 163.478 65.3087 163.519L86.3477 185.8C86.5449 186 86.6554 186.269 86.6554 186.55C86.6554 186.831 86.5449 187.1 86.3477 187.3C86.2469 187.405 86.1258 187.489 85.9918 187.546C85.8577 187.603 85.7135 187.633 85.5677 187.633Z" fill="var(--fill-0, #003316)"/>
<path id="Vector_44" d="M92.0002 187.633C91.8212 187.633 91.645 187.588 91.4872 187.504C91.3639 187.437 91.2549 187.346 91.1666 187.237C91.0782 187.128 91.0123 187.003 90.9724 186.868C90.9326 186.734 90.9196 186.592 90.9344 186.453C90.9491 186.313 90.9912 186.178 91.0582 186.055V186.055L96.9742 175.183C97.041 175.058 97.1316 174.948 97.241 174.859C97.3503 174.769 97.4762 174.702 97.6115 174.661C97.7467 174.621 97.8887 174.607 98.0292 174.621C98.1698 174.635 98.3062 174.676 98.4307 174.743C98.5552 174.81 98.6653 174.901 98.7548 175.01C98.8443 175.119 98.9113 175.245 98.9521 175.38C98.9929 175.516 99.0067 175.658 98.9927 175.798C98.9786 175.939 98.937 176.075 98.8702 176.2V176.2L92.9542 187.072C92.8614 187.243 92.7234 187.386 92.5553 187.485C92.3872 187.584 92.1953 187.635 92.0002 187.633V187.633Z" fill="var(--fill-0, #003316)"/>
<path id="Vector_45" d="M60.773 200.842C60.5895 200.838 60.4095 200.791 60.248 200.704L51.248 195.664C51.1199 195.597 51.0067 195.504 50.915 195.392C50.8234 195.28 50.7553 195.151 50.7147 195.012C50.6742 194.873 50.662 194.728 50.679 194.584C50.696 194.44 50.7417 194.302 50.8135 194.176C50.8852 194.05 50.9816 193.941 51.0968 193.853C51.2119 193.765 51.3436 193.702 51.4838 193.666C51.6241 193.631 51.77 193.624 51.913 193.646C52.056 193.668 52.193 193.719 52.316 193.795L61.316 198.835C61.5259 198.949 61.6917 199.129 61.7868 199.348C61.882 199.567 61.901 199.812 61.8409 200.043C61.7809 200.274 61.6451 200.478 61.4553 200.623C61.2655 200.768 61.0327 200.845 60.794 200.842H60.773Z" fill="var(--fill-0, #003316)"/>
<path id="Vector_46" d="M89.0808 223.429C99.3549 223.429 107.684 215.1 107.684 204.826C107.684 194.552 99.3549 186.223 89.0808 186.223C78.8066 186.223 70.4778 194.552 70.4778 204.826C70.4778 215.1 78.8066 223.429 89.0808 223.429Z" fill="var(--fill-0, #FF9F75)"/>
<path id="Vector_47" d="M68.6752 225.178C76.5602 225.178 82.9522 218.786 82.9522 210.901C82.9522 203.016 76.5602 196.624 68.6752 196.624C60.7902 196.624 54.3982 203.016 54.3982 210.901C54.3982 218.786 60.7902 225.178 68.6752 225.178Z" fill="var(--fill-0, #FF9F75)"/>
<path id="Vector_48" d="M78.3288 220.939C78.1695 220.942 78.0119 220.906 77.8698 220.834C74.178 219.081 71.2508 216.044 69.6348 212.29C68.7124 209.904 68.3296 207.343 68.5137 204.791C68.6978 202.239 69.4444 199.76 70.6998 197.53C70.77 197.408 70.8634 197.301 70.9749 197.216C71.0863 197.13 71.2136 197.067 71.3494 197.03C71.4852 196.993 71.6269 196.984 71.7664 197.002C71.9058 197.02 72.0404 197.066 72.1623 197.136C72.2843 197.206 72.3912 197.299 72.477 197.411C72.5628 197.522 72.6258 197.65 72.6625 197.785C72.6991 197.921 72.7086 198.063 72.6905 198.202C72.6724 198.342 72.627 198.476 72.5568 198.598C71.4635 200.545 70.8142 202.709 70.6555 204.936C70.4968 207.164 70.8326 209.398 71.6388 211.48C73.0635 214.735 75.6103 217.369 78.8148 218.902C79.0304 219.007 79.2044 219.182 79.3088 219.398C79.4131 219.613 79.4418 219.858 79.3902 220.092C79.3386 220.327 79.2097 220.536 79.0242 220.688C78.8388 220.84 78.6076 220.926 78.3678 220.93L78.3288 220.939Z" fill="var(--fill-0, #F23838)"/>
<path id="Vector_49" d="M93.4612 211.042C94.5994 211.042 95.5222 210.119 95.5222 208.981C95.5222 207.842 94.5994 206.92 93.4612 206.92C92.3229 206.92 91.4001 207.842 91.4001 208.981C91.4001 210.119 92.3229 211.042 93.4612 211.042Z" fill="var(--fill-0, #F23838)"/>
<path id="Vector_50" d="M99.4193 215.752C100.882 215.752 102.068 214.566 102.068 213.103C102.068 211.64 100.882 210.454 99.4193 210.454C97.9563 210.454 96.7703 211.64 96.7703 213.103C96.7703 214.566 97.9563 215.752 99.4193 215.752Z" fill="var(--fill-0, #F23838)"/>
<path id="Vector_51" d="M93.14 65.626C93.4432 65.7487 93.6855 65.9863 93.8142 66.2869C93.9429 66.5876 93.9475 66.927 93.827 67.231L78.293 106.087L76.001 105.187L91.535 66.328C91.6548 66.0221 91.8912 65.7763 92.1922 65.6447C92.4931 65.5131 92.8341 65.5063 93.14 65.626Z" fill="var(--fill-0, #FFC043)"/>
<path id="Vector_52" d="M97.7002 67.4527C97.8508 67.5125 97.988 67.6014 98.104 67.7144C98.2201 67.8273 98.3127 67.9621 98.3765 68.111C98.4403 68.2598 98.4741 68.4198 98.476 68.5817C98.4778 68.7437 98.4477 68.9044 98.3872 69.0547L82.8442 107.911L80.5522 106.996L96.0862 68.1397C96.146 67.9877 96.2354 67.8491 96.3492 67.7321C96.463 67.615 96.599 67.5218 96.7493 67.4579C96.8995 67.3939 97.0609 67.3605 97.2242 67.3596C97.3875 67.3587 97.5493 67.3904 97.7002 67.4527Z" fill="var(--fill-0, #FFC043)"/>
<path id="Vector_53" d="M78.7757 87.4507C84.2657 87.4507 89.5308 89.6316 93.4128 93.5136C97.2948 97.3956 99.4757 102.661 99.4757 108.151V114.283H58.0757V108.145C58.0773 102.656 60.2589 97.3922 64.1407 93.5115C68.0225 89.6307 73.2867 87.4507 78.7757 87.4507V87.4507Z" fill="var(--fill-0, #FFDDCF)"/>
<path id="Vector_54" d="M95.2673 118.3L95.1923 118.384C92.7233 120.97 90.0443 122.26 87.2033 122.143C84.2682 121.907 81.537 120.549 79.5773 118.351C78.2321 116.95 76.402 116.117 74.4623 116.023C73.3768 115.999 72.2978 116.196 71.2903 116.601C70.2828 117.005 69.3678 117.61 68.6003 118.378C65.5133 121.516 62.4473 123.1 59.4473 123.1C59.0903 123.101 58.7336 123.08 58.3793 123.037L57.6743 122.92C59.6715 126.871 62.7251 130.192 66.4958 132.513C70.2665 134.833 74.6067 136.063 79.0343 136.066C84.622 136.056 90.0301 134.091 94.321 130.512C98.6119 126.933 101.515 121.965 102.527 116.47C102.015 116.254 101.476 116.107 100.925 116.032C99.873 115.966 98.8192 116.136 97.8406 116.528C96.8619 116.92 95.9829 117.525 95.2673 118.3V118.3Z" fill="var(--fill-0, #21633D)"/>
<path id="Vector_55" d="M68.8342 133.744H89.2732V138.604C89.2732 138.978 89.1251 139.336 88.8613 139.6C88.5975 139.864 88.2397 140.013 87.8662 140.014H70.2442C69.8703 140.014 69.5116 139.866 69.2472 139.601C68.9828 139.337 68.8342 138.978 68.8342 138.604V133.744Z" fill="var(--fill-0, #21633D)"/>
<path id="Vector_56" d="M101.405 112.654C99.7916 112.504 98.1652 112.734 96.6571 113.328C95.149 113.922 93.8015 114.861 92.7232 116.071C92.0654 116.877 91.2439 117.535 90.313 118.001C89.3821 118.466 88.3631 118.729 87.3232 118.771C85.3245 118.562 83.4747 117.618 82.1332 116.122V116.122C80.1269 114.012 77.3645 112.785 74.4536 112.711C71.5427 112.637 68.7218 113.723 66.6112 115.729C66.4792 115.858 66.3472 115.987 66.2212 116.122C63.5842 118.792 61.1212 120.022 58.8832 119.752C57.8343 119.607 56.8448 119.179 56.0212 118.513C56.444 120.059 57.0209 121.558 57.7432 122.989L58.4452 123.106C58.7996 123.149 59.1563 123.17 59.5132 123.169C62.5132 123.169 65.5792 121.6 68.6662 118.462C69.4343 117.695 70.3495 117.091 71.3569 116.687C72.3643 116.283 73.443 116.087 74.5282 116.11C76.469 116.204 78.3003 117.037 79.6462 118.438C81.6011 120.59 84.3023 121.916 87.2002 122.146C90.0412 122.242 92.7202 120.973 95.1892 118.387L95.2642 118.303C95.9863 117.514 96.8772 116.899 97.8705 116.503C98.8638 116.107 99.9337 115.941 101 116.017C101.551 116.092 102.09 116.239 102.602 116.455C102.815 115.316 102.944 114.163 102.986 113.005C102.47 112.843 101.941 112.725 101.405 112.654V112.654Z" fill="var(--fill-0, #FFAFC4)"/>
<path id="Vector_57" d="M79.3641 136.852C75.6042 136.858 71.8791 136.132 68.3961 134.716C68.2625 134.662 68.1412 134.582 68.0394 134.48C67.9375 134.378 67.8573 134.257 67.8036 134.123C67.7498 133.989 67.7235 133.846 67.7263 133.702C67.7291 133.558 67.7609 133.416 67.8199 133.285C67.8788 133.153 67.9637 133.035 68.0694 132.937C68.1751 132.839 68.2995 132.764 68.435 132.715C68.5706 132.666 68.7146 132.646 68.8585 132.654C69.0023 132.662 69.143 132.699 69.2721 132.763C69.3681 132.763 79.1091 137.035 88.8471 132.763C88.9758 132.703 89.1152 132.669 89.2571 132.664C89.3991 132.658 89.5407 132.681 89.6736 132.731C89.8066 132.781 89.9283 132.857 90.0316 132.955C90.1349 133.052 90.2177 133.169 90.2751 133.299C90.3326 133.429 90.3636 133.569 90.3662 133.711C90.3689 133.853 90.3432 133.994 90.2907 134.126C90.2382 134.258 90.1599 134.378 90.0603 134.48C89.9608 134.581 89.8421 134.661 89.7111 134.716C86.4497 136.145 82.9246 136.873 79.3641 136.852V136.852Z" fill="var(--fill-0, #003316)"/>
<path id="Vector_58" d="M82.601 102.517C82.4163 102.532 82.2307 102.532 82.046 102.517C81.2585 102.403 80.5324 102.027 79.985 101.449C79.3612 100.783 79.01 99.9076 79.001 98.9952C79.001 98.712 79.1135 98.4403 79.3138 98.2401C79.5141 98.0398 79.7857 97.9272 80.069 97.9272V97.9272C80.3522 97.9272 80.6239 98.0398 80.8242 98.2401C81.0245 98.4403 81.137 98.712 81.137 98.9952C81.1309 99.3899 81.2758 99.7719 81.542 100.063C81.7577 100.303 82.048 100.463 82.3659 100.517C82.6838 100.572 83.0108 100.518 83.294 100.363C83.4315 100.285 83.5543 100.184 83.657 100.063L84.437 99.1632L85.247 100.039C85.3946 100.199 85.5752 100.324 85.7762 100.407C85.9772 100.49 86.1938 100.528 86.411 100.519C86.6151 100.514 86.8157 100.465 86.9997 100.377C87.1837 100.288 87.347 100.162 87.479 100.006L88.292 99.0672L89.105 100.006C89.2414 100.174 89.4164 100.305 89.615 100.39C89.8779 100.516 90.1733 100.558 90.461 100.51C90.8563 100.431 91.2052 100.201 91.433 99.8682C91.4956 99.7755 91.545 99.6745 91.58 99.5682C91.6418 99.4076 91.6714 99.2363 91.667 99.0642C91.667 98.781 91.7795 98.5093 91.9798 98.3091C92.1801 98.1088 92.4517 97.9962 92.735 97.9962C93.0182 97.9962 93.2899 98.1088 93.4902 98.3091C93.6905 98.5093 93.803 98.781 93.803 99.0642C93.8062 99.4837 93.734 99.9003 93.59 100.294C93.4902 100.572 93.3573 100.837 93.194 101.083C92.7236 101.796 92.0124 102.315 91.1906 102.547C90.3687 102.778 89.491 102.706 88.718 102.343L88.271 101.992C87.7076 102.345 87.0563 102.532 86.3915 102.532C85.7267 102.532 85.0753 102.345 84.512 101.992L84.383 102.067C83.8374 102.368 83.2237 102.522 82.601 102.517V102.517Z" fill="var(--fill-0, #FFAFC4)"/>
<path id="Vector_59" d="M73.4811 96.8053C72.9577 96.8017 72.4408 96.6894 71.9631 96.4753C71.8131 96.4003 71.6631 96.3253 71.5251 96.2383C71.0146 96.5614 70.4303 96.7493 69.8271 96.7843C69.2945 96.8139 68.7619 96.7257 68.2673 96.5261C67.7726 96.3265 67.328 96.0203 66.9651 95.6293C66.438 94.9752 66.0887 94.196 65.9511 93.3673C65.9293 93.227 65.9352 93.0838 65.9687 92.9459C66.0022 92.808 66.0625 92.678 66.1462 92.5633C66.2299 92.4487 66.3354 92.3517 66.4566 92.2778C66.5778 92.2039 66.7124 92.1546 66.8526 92.1328C66.9929 92.1109 67.1361 92.1169 67.274 92.1504C67.412 92.1838 67.542 92.2441 67.6566 92.3279C67.7712 92.4116 67.8682 92.517 67.9421 92.6382C68.016 92.7595 68.0653 92.894 68.0871 93.0343C68.1316 93.3258 68.2249 93.6078 68.3631 93.8683C68.4325 93.9974 68.5149 94.119 68.6091 94.2313V94.2313C68.8981 94.5038 69.2799 94.6561 69.6771 94.6573C69.8802 94.648 70.0793 94.598 70.2628 94.5104C70.4462 94.4228 70.6102 94.2993 70.7451 94.1473L71.5581 93.2053L72.3591 94.1473C72.5035 94.3075 72.6778 94.4379 72.8721 94.5313C73.1351 94.6536 73.4288 94.6944 73.7151 94.6483C74.1107 94.5699 74.4598 94.3394 74.6871 94.0063C74.7502 93.9119 74.8035 93.8114 74.8461 93.7063C74.9019 93.5451 74.9313 93.3759 74.9331 93.2053C74.9331 92.922 75.0457 92.6504 75.2459 92.4501C75.4462 92.2498 75.7179 92.1373 76.0011 92.1373C76.2844 92.1373 76.556 92.2498 76.7563 92.4501C76.9566 92.6504 77.0691 92.922 77.0691 93.2053C77.0681 93.6236 76.995 94.0387 76.8531 94.4323C76.7558 94.7139 76.6195 94.9805 76.4481 95.2243C76.1738 95.6276 75.8219 95.9722 75.4129 96.238C75.0039 96.5037 74.5461 96.6854 74.0661 96.7723C73.8719 96.7937 73.6766 96.8047 73.4811 96.8053V96.8053Z" fill="var(--fill-0, #FFAFC4)"/>
<path id="Vector_60" d="M66.1638 116.038C67.1573 114.993 68.3468 114.154 69.6646 113.569C70.9824 112.984 72.4026 112.664 73.844 112.628C75.2855 112.591 76.7199 112.839 78.0654 113.358C79.411 113.876 80.6412 114.654 81.6858 115.648C81.8178 115.774 81.9498 115.903 82.0758 116.038C83.4173 117.534 85.2671 118.479 87.2658 118.687C88.3057 118.645 89.3247 118.382 90.2556 117.917C91.1865 117.451 92.008 116.794 92.6658 115.987C93.7573 114.783 95.1169 113.853 96.6346 113.273C98.1524 112.692 99.7855 112.477 101.402 112.645C101.934 112.714 102.46 112.828 102.974 112.984V106.246C102.974 106.065 102.938 105.886 102.869 105.718C102.799 105.551 102.698 105.399 102.569 105.271C102.441 105.143 102.289 105.042 102.122 104.973C101.954 104.904 101.775 104.869 101.594 104.869H56.4888C56.1321 104.88 55.7938 105.03 55.5465 105.288C55.2992 105.545 55.1625 105.889 55.1658 106.246V112.12C55.1674 114.248 55.4508 116.367 56.0088 118.42C56.8321 119.086 57.8218 119.515 58.8708 119.659C61.0608 119.935 63.5268 118.708 66.1638 116.038Z" fill="var(--fill-0, #21633D)"/>
<path id="Vector_61" d="M173.075 105.082L199.448 108.487C201.79 108.789 204.05 109.55 206.098 110.726C208.146 111.902 209.943 113.47 211.385 115.34C212.827 117.21 213.887 119.346 214.503 121.625C215.12 123.905 215.282 126.284 214.979 128.626L212.096 150.955L152.318 143.233L155.495 118.633C156.03 114.505 158.183 110.759 161.479 108.218C164.776 105.677 168.947 104.549 173.075 105.082V105.082Z" fill="var(--fill-0, #650C0C)"/>
<path id="Vector_62" d="M162.416 113.8L203.9 119.158L197.153 171.319L156.905 166.123C155.923 165.996 154.975 165.677 154.117 165.184C153.258 164.69 152.505 164.033 151.9 163.249C151.296 162.465 150.852 161.569 150.593 160.613C150.335 159.657 150.268 158.66 150.395 157.678L155.363 119.221C155.465 118.406 155.728 117.619 156.134 116.906C156.541 116.193 157.084 115.566 157.733 115.063C158.382 114.559 159.124 114.189 159.916 113.972C160.708 113.755 161.535 113.697 162.35 113.8H162.416Z" fill="var(--fill-0, #FFC9B2)"/>
<path id="Vector_63" d="M202.079 160.174C208.519 160.174 213.74 154.953 213.74 148.513C213.74 142.073 208.519 136.852 202.079 136.852C195.639 136.852 190.418 142.073 190.418 148.513C190.418 154.953 195.639 160.174 202.079 160.174Z" fill="var(--fill-0, #FFC9B2)"/>
<path id="Vector_64" d="M197.909 156.877L168.596 162.836L172.078 179.967L201.392 174.008L197.909 156.877Z" fill="var(--fill-0, #FFC9B2)"/>
<path id="Vector_65" d="M158.861 154.696H158.477C156.83 154.579 155.285 153.856 154.139 152.668C153.951 152.461 153.851 152.188 153.86 151.908C153.87 151.628 153.989 151.363 154.191 151.17C154.393 150.976 154.663 150.869 154.943 150.872C155.223 150.874 155.491 150.986 155.69 151.183C156.457 151.995 157.501 152.491 158.615 152.572C159.278 152.592 159.938 152.471 160.551 152.217C161.163 151.963 161.715 151.582 162.17 151.099C162.366 150.905 162.629 150.793 162.905 150.788C163.181 150.783 163.448 150.885 163.651 151.072C163.854 151.26 163.976 151.518 163.993 151.793C164.01 152.069 163.92 152.34 163.742 152.551C163.111 153.214 162.354 153.745 161.517 154.113C160.679 154.481 159.776 154.679 158.861 154.696V154.696Z" fill="var(--fill-0, #FF7D49)"/>
<path id="Vector_66" d="M207.266 179.956C204.92 179.887 202.679 179.299 202.082 176.692C202.049 176.509 201.14 172.594 200.93 171.691C200.924 171.667 200.914 171.643 200.899 171.623C200.884 171.602 200.866 171.585 200.844 171.571C200.823 171.558 200.799 171.549 200.774 171.545C200.749 171.541 200.723 171.542 200.699 171.547L171.746 177.517C171.698 177.527 171.656 177.554 171.627 177.594C171.599 177.633 171.587 177.682 171.593 177.73L171.827 179.773C172.367 184.517 171.782 189.32 170.12 193.795L169.883 194.437L156.617 230.2L152.699 240.817C151.267 244.67 150.633 248.773 150.833 252.878C151.033 256.983 152.064 261.005 153.863 264.7L164.423 286.39L173.654 305.218C173.669 305.251 173.692 305.278 173.722 305.298C173.752 305.317 173.786 305.328 173.822 305.329L194 305.8L226.046 306.523C226.083 306.526 226.119 306.539 226.151 306.559V306.559C226.178 306.578 226.21 306.59 226.243 306.593C226.276 306.596 226.309 306.591 226.34 306.577L249.2 296.623L207.266 179.956Z" fill="var(--fill-0, #BE1C44)"/>
<path id="Vector_67" d="M156.95 114.436C156.95 114.436 169.1 148.192 202.025 136.798C203.139 130.732 204.254 124.681 205.37 118.645C202.592 118.312 198.407 117.799 193.289 117.118C189.02 116.551 186.884 116.218 184.556 115.9C176.432 114.816 168.543 113.94 160.889 113.272C159.994 113.165 159.086 113.286 158.252 113.626C157.781 113.833 157.343 114.105 156.95 114.436Z" fill="var(--fill-0, #650C0C)"/>
<path id="Vector_68" d="M169.604 167.779L184.214 168.889L170.681 173.044L169.604 167.779Z" fill="var(--fill-0, #F23838)"/>
<path id="Vector_69" d="M202.325 152.572C201.575 152.572 200.842 152.35 200.218 151.933C199.595 151.517 199.109 150.924 198.822 150.231C198.535 149.539 198.46 148.776 198.606 148.04C198.752 147.305 199.113 146.629 199.644 146.099C200.174 145.569 200.85 145.207 201.585 145.061C202.321 144.915 203.083 144.99 203.776 145.277C204.469 145.564 205.061 146.05 205.478 146.674C205.895 147.297 206.117 148.03 206.117 148.78V148.78C206.117 149.786 205.717 150.75 205.006 151.462C204.295 152.173 203.331 152.572 202.325 152.572V152.572ZM202.325 147.136C201.997 147.136 201.677 147.233 201.405 147.415C201.133 147.597 200.92 147.856 200.795 148.159C200.67 148.461 200.637 148.794 200.701 149.115C200.765 149.437 200.922 149.732 201.154 149.963C201.386 150.195 201.681 150.353 202.002 150.416C202.323 150.48 202.656 150.448 202.959 150.322C203.261 150.197 203.52 149.985 203.702 149.712C203.884 149.44 203.981 149.12 203.981 148.792C203.981 148.353 203.807 147.932 203.496 147.621C203.185 147.311 202.764 147.136 202.325 147.136Z" fill="var(--fill-0, #FF7D49)"/>
<path id="Vector_70" d="M199.793 148.9C199.635 148.899 199.479 148.867 199.334 148.804C199.078 148.683 198.88 148.465 198.784 148.199C198.688 147.932 198.701 147.639 198.821 147.382C199.558 145.842 200.83 144.623 202.4 143.953C203.346 143.588 204.359 143.428 205.372 143.484C206.384 143.539 207.373 143.808 208.274 144.274C208.402 144.331 208.518 144.414 208.614 144.516C208.71 144.618 208.785 144.738 208.835 144.869C208.885 145 208.909 145.14 208.905 145.281C208.9 145.421 208.869 145.559 208.811 145.687C208.754 145.815 208.672 145.93 208.569 146.027C208.467 146.123 208.347 146.198 208.216 146.248C208.085 146.298 207.945 146.322 207.805 146.317C207.664 146.313 207.526 146.281 207.398 146.224C207.353 146.203 207.311 146.179 207.269 146.155C206.646 145.835 205.963 145.65 205.264 145.611C204.564 145.573 203.865 145.681 203.21 145.93C202.135 146.39 201.263 147.224 200.756 148.279C200.671 148.463 200.535 148.619 200.365 148.729C200.194 148.839 199.996 148.898 199.793 148.9V148.9Z" fill="var(--fill-0, #FF7D49)"/>
<path id="Vector_71" d="M181.181 185.56C180.928 185.564 180.682 185.478 180.486 185.318C180.291 185.157 180.158 184.933 180.113 184.684L178.766 177.082C178.741 176.942 178.745 176.798 178.776 176.659C178.806 176.52 178.864 176.388 178.946 176.272C179.028 176.155 179.132 176.056 179.252 175.98C179.372 175.903 179.506 175.851 179.647 175.827C179.787 175.802 179.93 175.805 180.069 175.836C180.208 175.867 180.34 175.925 180.457 176.007C180.573 176.088 180.673 176.192 180.749 176.313C180.825 176.433 180.877 176.567 180.902 176.707L182.249 184.3C182.298 184.578 182.234 184.865 182.072 185.097C181.91 185.328 181.663 185.486 181.385 185.536V185.536L181.181 185.56Z" fill="var(--fill-0, #003316)"/>
<path id="Vector_72" d="M189.959 183.82C189.703 183.823 189.454 183.733 189.258 183.568C189.062 183.403 188.932 183.173 188.891 182.92L187.589 175.327C187.564 175.189 187.567 175.047 187.597 174.91C187.627 174.773 187.684 174.644 187.764 174.529C187.844 174.414 187.947 174.316 188.065 174.24C188.183 174.164 188.315 174.113 188.453 174.088V174.088C188.732 174.039 189.018 174.103 189.251 174.265C189.483 174.426 189.641 174.674 189.692 174.952V174.952L191.036 182.545C191.061 182.683 191.058 182.825 191.028 182.962C190.998 183.099 190.941 183.229 190.861 183.344C190.78 183.459 190.678 183.557 190.56 183.632C190.442 183.708 190.31 183.76 190.172 183.784V183.784L189.959 183.82Z" fill="var(--fill-0, #003316)"/>
<path id="Vector_73" d="M220.97 252.349L183.47 226.429L162.131 253.639L226.235 306.607C226.859 307.036 229.463 308.812 231.335 309.94C233.507 311.203 235.813 312.22 238.211 312.973C243.336 314.527 248.778 314.719 254 313.531C255.854 313.108 262.682 311.368 268.034 305.689C273.434 299.941 274.895 292.738 275.009 287.053C275.061 284.399 274.346 281.786 272.95 279.528C271.555 277.269 269.537 275.462 267.14 274.321L220.97 252.349Z" fill="var(--fill-0, #BE1C44)"/>
<path id="Vector_74" d="M274.271 278.971C270.971 261.394 265.271 244.435 258.467 227.947C258.453 227.875 258.428 227.806 258.392 227.743C253.574 216.07 249.122 202.861 240.344 193.408C239.864 192.898 239.381 192.34 238.868 191.881C237.704 190.837 225.608 179.248 207.794 179.965C206.279 180.024 204.768 180.169 203.27 180.4C201.363 196.662 202.623 213.139 206.981 228.922C216.089 261.7 236.165 281.962 245.615 290.383L249.215 296.623L274.862 285.472C274.897 285.456 274.928 285.43 274.948 285.397C274.969 285.363 274.98 285.325 274.979 285.286C274.908 283.166 274.671 281.054 274.271 278.971Z" fill="var(--fill-0, #BE1C44)"/>
<path id="Vector_75" d="M140.849 183.433C136.949 179.287 130.901 179.794 128.495 182.926C126.668 185.308 126.839 189.346 129.266 192.457L132.593 196.693C133.701 198.107 134.81 199.518 135.92 200.926C135.491 200.968 135.059 201.028 134.633 201.106C132.583 201.476 130.627 202.246 128.875 203.373C127.124 204.499 125.611 205.959 124.423 207.67C123.236 209.381 122.398 211.31 121.955 213.345C121.513 215.38 121.476 217.482 121.847 219.532C121.005 220.304 120.349 221.256 119.925 222.317C119.502 223.378 119.323 224.521 119.402 225.661C119.585 227.929 120.293 230.123 121.472 232.069C123.257 235.263 125.653 238.075 128.522 240.346C131.993 243.088 136.253 242.311 138.035 242.086C140.682 245.441 143.939 248.266 147.635 250.414C151.768 252.522 156.282 253.783 160.91 254.122C161.104 254.131 161.299 254.109 161.486 254.056C161.868 253.915 162.187 253.643 162.386 253.288C162.824 252.625 171.443 241.657 183.446 226.429C169.25 212.101 155.051 197.769 140.849 183.433Z" fill="var(--fill-0, #FFC9B2)"/>
<path id="Vector_76" d="M141.134 203.329C140.995 203.332 140.856 203.308 140.726 203.257C139.128 202.632 137.461 202.201 135.761 201.973C135.611 201.972 135.463 201.938 135.326 201.876C135.19 201.813 135.069 201.722 134.97 201.609C134.871 201.496 134.797 201.364 134.753 201.22C134.709 201.077 134.696 200.926 134.714 200.777C134.733 200.628 134.783 200.484 134.86 200.356C134.938 200.228 135.042 200.117 135.166 200.032C135.289 199.947 135.429 199.888 135.577 199.861C135.724 199.834 135.876 199.838 136.022 199.873V199.873C137.914 200.116 139.768 200.592 141.542 201.292C141.767 201.389 141.952 201.56 142.066 201.777C142.18 201.995 142.215 202.244 142.167 202.485C142.118 202.725 141.988 202.941 141.799 203.097C141.61 203.253 141.373 203.339 141.128 203.341L141.134 203.329Z" fill="var(--fill-0, #FF7D49)"/>
<path id="Vector_77" d="M161.273 246.7C153.8 246.7 147.125 239.32 146.792 238.945C146.618 238.731 146.533 238.458 146.556 238.182C146.578 237.907 146.706 237.651 146.913 237.468C147.12 237.285 147.389 237.189 147.665 237.2C147.941 237.21 148.203 237.327 148.394 237.526C148.481 237.622 157.343 247.468 165.14 243.667C165.395 243.543 165.689 243.525 165.957 243.617C166.089 243.662 166.212 243.733 166.317 243.826C166.422 243.919 166.508 244.032 166.57 244.158C166.631 244.284 166.668 244.421 166.676 244.561C166.685 244.701 166.666 244.841 166.621 244.974C166.575 245.107 166.504 245.229 166.411 245.335C166.318 245.44 166.205 245.526 166.079 245.587C164.584 246.323 162.939 246.704 161.273 246.7V246.7Z" fill="var(--fill-0, #FF7D49)"/>
<path id="Vector_78" d="M142.916 240.856C141.104 240.804 139.352 240.193 137.9 239.107C137.669 238.943 137.513 238.693 137.465 238.414C137.418 238.134 137.484 237.847 137.648 237.616C137.812 237.385 138.062 237.228 138.342 237.181C138.621 237.134 138.908 237.2 139.139 237.364C141.017 238.711 143.165 239.095 144.629 238.336C146.624 237.268 146.891 235.036 147.17 232.636L147.278 231.736C147.418 228.983 148.084 226.282 149.24 223.78C150.056 222.311 151.143 221.01 152.444 219.946C152.651 219.752 152.926 219.649 153.21 219.658C153.493 219.667 153.761 219.789 153.955 219.995C154.148 220.202 154.252 220.478 154.243 220.761C154.234 221.044 154.112 221.312 153.905 221.506L153.803 221.59C152.717 222.475 151.816 223.566 151.151 224.8C150.128 227.062 149.541 229.496 149.42 231.976L149.312 232.894C149.012 235.48 148.64 238.684 145.628 240.253C144.786 240.669 143.855 240.875 142.916 240.856Z" fill="var(--fill-0, #FF7D49)"/>
<path id="Vector_79" d="M135.452 239.959C134.194 239.867 132.968 239.526 131.843 238.956C130.718 238.385 129.718 237.598 128.9 236.638C127.149 234.496 125.71 232.116 124.628 229.57C123.177 226.424 121.98 223.166 121.049 219.829C120.969 219.556 121.002 219.262 121.139 219.012C121.276 218.763 121.506 218.578 121.78 218.499C122.053 218.419 122.347 218.451 122.596 218.588C122.846 218.725 123.03 218.956 123.11 219.229V219.229C124.003 222.457 125.157 225.608 126.56 228.649C127.533 231.005 128.838 233.209 130.436 235.195C131.954 236.893 134.558 238.324 136.418 237.64C136.763 237.524 137.079 237.335 137.345 237.087C137.611 236.839 137.821 236.536 137.96 236.2C138.731 234.481 138.281 231.769 137.555 229.996C137.33 229.429 137.087 228.928 136.841 228.349C135.773 225.829 134.564 223.249 135.194 220.063C135.902 216.832 137.782 213.979 140.471 212.053C140.7 211.908 140.975 211.855 141.242 211.905C141.508 211.955 141.745 212.104 141.905 212.323C142.066 212.541 142.137 212.813 142.104 213.082C142.072 213.351 141.939 213.598 141.731 213.772C139.509 215.416 137.966 217.817 137.396 220.522C136.904 223.033 137.822 225.115 138.896 227.518C139.142 228.082 139.397 228.649 139.631 229.225C140.486 231.361 141.107 234.625 140.015 237.106C139.761 237.707 139.385 238.249 138.911 238.698C138.437 239.147 137.875 239.492 137.261 239.713C136.678 239.904 136.065 239.988 135.452 239.959V239.959Z" fill="var(--fill-0, #FF7D49)"/>
<path id="Vector_80" d="M126.578 169.03C125.698 168.088 124.721 167.242 123.662 166.507C123.108 166.144 122.501 165.871 121.862 165.697C120.489 165.381 119.048 165.566 117.799 166.218C116.55 166.869 115.575 167.945 115.049 169.252C113.885 172.168 115.508 174.859 117.26 177.112C121.26 182.232 125.26 187.347 129.26 192.457L140.843 183.433L126.578 169.03Z" fill="var(--fill-0, #FFC9B2)"/>
<path id="Vector_81" d="M226.034 307.582C225.787 307.585 225.547 307.497 225.359 307.336L161.636 254.761C161.529 254.671 161.44 254.562 161.375 254.438C161.309 254.314 161.269 254.179 161.256 254.039C161.244 253.9 161.258 253.76 161.3 253.626C161.341 253.492 161.409 253.368 161.498 253.261C161.678 253.043 161.936 252.905 162.217 252.877C162.498 252.849 162.779 252.933 162.998 253.111L226.715 305.692C226.823 305.781 226.912 305.891 226.978 306.014C227.043 306.138 227.083 306.273 227.096 306.413C227.11 306.552 227.095 306.692 227.054 306.826C227.013 306.96 226.945 307.084 226.856 307.192V307.192C226.756 307.313 226.63 307.411 226.488 307.478C226.346 307.545 226.191 307.581 226.034 307.582Z" fill="var(--fill-0, #003316)"/>
<path id="Vector_82" d="M240.833 265.846C240.621 265.846 240.413 265.786 240.233 265.675L182.858 227.338C182.64 227.174 182.493 226.932 182.448 226.663C182.402 226.394 182.461 226.118 182.613 225.892C182.764 225.665 182.997 225.505 183.263 225.444C183.529 225.383 183.808 225.426 184.043 225.565L241.433 263.893C241.55 263.97 241.651 264.07 241.729 264.187C241.808 264.303 241.862 264.434 241.89 264.572C241.918 264.709 241.919 264.851 241.892 264.989C241.865 265.127 241.811 265.258 241.733 265.375V265.375C241.634 265.522 241.5 265.642 241.342 265.724C241.185 265.806 241.01 265.848 240.833 265.846V265.846Z" fill="var(--fill-0, #003316)"/>
<path id="Vector_83" d="M220.97 252.349C220.789 252.346 220.611 252.298 220.454 252.208C220.297 252.119 220.164 251.991 220.07 251.836L205.88 228.874C205.732 228.633 205.685 228.343 205.75 228.067C205.816 227.792 205.987 227.553 206.228 227.404C206.469 227.258 206.758 227.214 207.033 227.28C207.307 227.347 207.544 227.518 207.692 227.758L221.873 250.717C221.946 250.836 221.996 250.969 222.018 251.108C222.041 251.246 222.036 251.388 222.003 251.524C221.971 251.661 221.912 251.789 221.83 251.903C221.748 252.017 221.644 252.113 221.525 252.187V252.187C221.358 252.292 221.166 252.348 220.97 252.349V252.349Z" fill="var(--fill-0, #003316)"/>
<path id="Vector_84" d="M225.371 134.149C234.601 134.149 242.084 126.666 242.084 117.436C242.084 108.206 234.601 100.723 225.371 100.723C216.141 100.723 208.658 108.206 208.658 117.436C208.658 126.666 216.141 134.149 225.371 134.149Z" fill="var(--fill-0, #650C0C)"/>
<path id="Vector_85" d="M247.712 118.57C255.445 118.57 261.713 112.301 261.713 104.569C261.713 96.8363 255.445 90.5679 247.712 90.5679C239.98 90.5679 233.711 96.8363 233.711 104.569C233.711 112.301 239.98 118.57 247.712 118.57Z" fill="var(--fill-0, #650C0C)"/>
<path id="Vector_86" d="M254.504 100.96L292.715 105.892C293.072 105.932 293.432 105.878 293.762 105.736C294.091 105.594 294.378 105.368 294.594 105.081C294.809 104.794 294.947 104.456 294.992 104.1C295.037 103.744 294.988 103.383 294.851 103.051L281.393 70.801C281.29 70.5498 281.138 70.3214 280.946 70.1292C280.754 69.9369 280.526 69.7845 280.275 69.6808C280.024 69.577 279.755 69.524 279.484 69.5247C279.212 69.5254 278.943 69.5799 278.693 69.685C278.355 69.823 278.06 70.0501 277.841 70.342L254.504 100.96Z" fill="var(--fill-0, #650C0C)"/>
<path id="Vector_87" d="M256.79 89.2873L256.258 89.5375C254.368 90.4257 253.557 92.6773 254.445 94.5666L259.644 105.624C260.532 107.514 262.784 108.325 264.673 107.437L265.205 107.187C267.094 106.299 267.906 104.047 267.018 102.158L261.819 91.0999C260.931 89.2106 258.679 88.3991 256.79 89.2873Z" fill="var(--fill-0, #FEDC96)"/>
</g>
</svg>
