<svg width="340" height="340" viewBox="0 0 340 340" fill="none" xmlns="http://www.w3.org/2000/svg">
<path fill-rule="evenodd" clip-rule="evenodd" d="M27.2114 80.6927C56.9138 46.0518 112.469 67.583 156.263 54.8359C202.079 41.5004 243.805 -18.5052 284.908 5.68563C326.078 29.9157 295.247 95.3457 304.702 142.198C312.99 183.272 350.455 219.629 336.022 258.984C320.366 301.673 277.699 336.238 232.37 339.42C190.351 342.371 167.259 293.66 130.329 273.426C91.5951 252.204 35.4099 259.042 14.569 220.089C-8.29982 177.345 -4.36397 117.518 27.2114 80.6927Z" fill="#F5FDFF"/>
<path d="M96.8169 104.807L90.3724 105.829L102.398 181.673L108.843 180.651L96.8169 104.807Z" fill="#73CD9A"/>
<path d="M91.7714 92.097C93.7805 91.9251 95.0293 87.3454 94.5606 81.868C94.092 76.3906 92.0835 72.0896 90.0744 72.2615C88.0654 72.4334 86.8166 77.013 87.2852 82.4905C87.7538 87.9679 89.7624 92.2689 91.7714 92.097Z" fill="#73CD9A"/>
<path d="M96.6626 100.904C98.6716 100.732 99.9204 96.1521 99.4518 90.6747C98.9831 85.1972 96.9746 80.8962 94.9655 81.0681C92.9565 81.24 91.7077 85.8197 92.1763 91.2971C92.645 96.7745 94.6535 101.076 96.6626 100.904Z" fill="#73CD9A"/>
<path d="M87.8431 101.662C89.8522 101.49 91.1009 96.9102 90.6323 91.4327C90.1637 85.9553 88.1551 81.6543 86.1461 81.8262C84.137 81.9981 82.8883 86.5777 83.3569 92.0552C83.8255 97.5326 85.8341 101.834 87.8431 101.662Z" fill="#73CD9A"/>
<path d="M93.6919 110.449C95.701 110.277 96.9497 105.698 96.4811 100.22C96.0125 94.7427 94.0039 90.4417 91.9949 90.6136C89.9858 90.7855 88.7371 95.3652 89.2057 100.843C89.6743 106.32 91.6829 110.621 93.6919 110.449Z" fill="#73CD9A"/>
<path d="M102.742 103.172C103.328 97.7063 102.178 93.1009 100.173 92.8859C98.1682 92.6709 96.0678 96.9278 95.4817 102.394C94.8956 107.86 96.0458 112.465 98.0507 112.68C100.056 112.895 102.156 108.639 102.742 103.172Z" fill="#73CD9A"/>
<path d="M92.7132 113.481C94.5234 112.593 94.0274 107.872 91.6054 102.937C89.1834 98.0018 85.7526 94.7212 83.9424 95.6096C82.1323 96.498 82.6283 101.219 85.0502 106.154C87.4722 111.089 90.903 114.37 92.7132 113.481Z" fill="#73CD9A"/>
<path d="M103.759 111.39C105.342 106.125 105.061 101.387 103.13 100.806C101.199 100.225 98.3499 104.022 96.7665 109.286C95.1831 114.551 95.4648 119.289 97.3957 119.87C99.3267 120.451 102.176 116.654 103.759 111.39Z" fill="#73CD9A"/>
<path d="M94.6577 120.651C96.3256 119.517 95.1734 114.913 92.0842 110.365C88.9949 105.818 85.1385 103.05 83.4706 104.183C81.8027 105.316 82.9549 109.921 86.0441 114.468C89.1333 119.016 92.9898 121.784 94.6577 120.651Z" fill="#73CD9A"/>
<path d="M87.4965 92.5856C87.3868 92.5853 87.2797 92.5527 87.1884 92.4919C87.0972 92.431 87.0259 92.3447 86.9835 92.2436C86.0565 90.0146 86.6415 87.5606 88.4085 86.2736C89.2194 85.7289 90.2077 85.5143 91.1715 85.6736C90.9555 83.8976 91.5075 82.2626 92.6715 81.3626C93.1782 80.9763 93.775 80.7254 94.4055 80.6336C94.5504 80.6127 94.6977 80.6494 94.816 80.7357C94.9343 80.822 95.0141 80.9512 95.0385 81.0956C95.0618 81.2408 95.0266 81.3893 94.9406 81.5085C94.8545 81.6278 94.7246 81.708 94.5795 81.7316C94.1332 81.794 93.7101 81.9684 93.3495 82.2386C92.3505 83.0126 91.9815 84.5876 92.4045 86.2556L92.6595 87.2516L91.6845 86.9156C91.6845 86.9156 90.1245 86.3936 89.0625 87.1706C87.7125 88.1516 87.2805 90.0656 88.0095 91.8176C88.0653 91.9537 88.065 92.1063 88.0089 92.2423C87.9527 92.3783 87.8451 92.4865 87.7095 92.5436C87.6416 92.5704 87.5694 92.5846 87.4965 92.5856Z" fill="#001433"/>
<path d="M100.063 110.531C99.9242 110.531 99.7902 110.478 99.688 110.384C99.5857 110.289 99.5227 110.16 99.5114 110.021C99.4094 108.722 98.6114 107.651 97.5044 107.36C96.798 107.203 96.0579 107.329 95.4434 107.711L94.7684 108.125L94.6124 107.348C94.3124 105.848 93.2294 104.675 91.9124 104.429C91.0958 104.301 90.2604 104.478 89.5664 104.927C89.4423 105.007 89.2917 105.034 89.1476 105.002C89.0036 104.971 88.878 104.883 88.7984 104.759C88.7189 104.635 88.6919 104.484 88.7234 104.34C88.7549 104.196 88.8423 104.071 88.9664 103.991C89.8963 103.389 91.0175 103.156 92.1104 103.337C92.9005 103.508 93.6308 103.886 94.2266 104.432C94.8223 104.978 95.262 105.673 95.5004 106.445C96.2222 106.152 97.0188 106.096 97.7744 106.286C99.3254 106.7 100.474 108.164 100.6 109.934C100.608 110.007 100.6 110.081 100.579 110.151C100.557 110.221 100.522 110.286 100.474 110.342C100.427 110.398 100.369 110.444 100.303 110.477C100.238 110.51 100.167 110.529 100.093 110.534L100.063 110.531Z" fill="#001433"/>
<path d="M95.4165 122.076C94.3488 122.052 93.3093 121.728 92.4165 121.143C92.2971 121.056 92.2171 120.925 92.194 120.78C92.171 120.634 92.2067 120.485 92.2935 120.366C92.3802 120.246 92.5108 120.166 92.6565 120.143C92.8022 120.12 92.9511 120.156 93.0705 120.243C93.1935 120.333 96.1545 122.409 98.7135 119.091C98.756 119.028 98.8109 118.974 98.8749 118.933C98.9389 118.893 99.0105 118.865 99.0855 118.853C99.1604 118.841 99.237 118.845 99.3105 118.864C99.384 118.883 99.4529 118.916 99.5129 118.963C99.5729 119.009 99.6227 119.067 99.6593 119.134C99.6959 119.2 99.7185 119.273 99.7257 119.349C99.7329 119.425 99.7245 119.501 99.7011 119.573C99.6776 119.645 99.6397 119.712 99.5895 119.769C98.1945 121.563 96.6885 122.076 95.4165 122.076Z" fill="#001433"/>
<path d="M120.52 130.787L113.998 130.997L116.478 207.748L122.999 207.538L120.52 130.787Z" fill="#73CD9A"/>
<path d="M121.228 107.706C121.448 102.209 119.991 97.6871 117.975 97.6064C115.958 97.5257 114.146 101.917 113.926 107.414C113.706 112.912 115.162 117.434 117.179 117.514C119.195 117.595 121.008 113.204 121.228 107.706Z" fill="#73CD9A"/>
<path d="M124.887 117.109C125.105 111.616 123.649 107.098 121.635 107.018C119.62 106.937 117.809 111.325 117.59 116.818C117.372 122.312 118.828 126.83 120.843 126.91C122.857 126.99 124.668 122.602 124.887 117.109Z" fill="#73CD9A"/>
<path d="M116.039 116.754C116.258 111.261 114.802 106.743 112.787 106.663C110.772 106.583 108.961 110.971 108.743 116.464C108.524 121.957 109.98 126.475 111.995 126.555C114.01 126.636 115.82 122.248 116.039 116.754Z" fill="#73CD9A"/>
<path d="M120.746 126.206C120.964 120.713 119.508 116.195 117.494 116.115C115.479 116.035 113.668 120.423 113.449 125.916C113.231 131.409 114.687 135.927 116.702 136.007C118.716 136.087 120.527 131.699 120.746 126.206Z" fill="#73CD9A"/>
<path d="M126.6 129.921C127.864 124.571 127.297 119.858 125.335 119.394C123.373 118.931 120.757 122.892 119.494 128.242C118.23 133.592 118.796 138.305 120.759 138.769C122.721 139.232 125.336 135.271 126.6 129.921Z" fill="#73CD9A"/>
<path d="M115.362 138.877C117.269 138.222 117.365 133.476 115.577 128.277C113.789 123.079 110.794 119.396 108.887 120.052C106.98 120.708 106.884 125.454 108.672 130.652C110.46 135.851 113.455 139.533 115.362 138.877Z" fill="#73CD9A"/>
<path d="M126.58 138.206C128.809 133.18 129.12 128.444 127.277 127.626C125.434 126.809 122.133 130.221 119.905 135.246C117.677 140.272 117.365 145.009 119.208 145.826C121.052 146.643 124.352 143.232 126.58 138.206Z" fill="#73CD9A"/>
<path d="M116.395 146.235C118.191 145.319 117.622 140.606 115.123 135.709C112.625 130.812 109.144 127.585 107.348 128.502C105.551 129.418 106.121 134.131 108.619 139.028C111.117 143.924 114.599 147.151 116.395 146.235Z" fill="#73CD9A"/>
<path d="M112.849 117.507C112.728 117.507 112.61 117.467 112.514 117.393C112.417 117.319 112.348 117.216 112.315 117.099C111.673 114.774 112.561 112.41 114.472 111.354C115.344 110.913 116.351 110.823 117.286 111.102C117.286 109.302 118.048 107.76 119.314 107.013C119.862 106.694 120.481 106.519 121.114 106.506C121.26 106.505 121.401 106.56 121.507 106.66C121.613 106.76 121.677 106.897 121.684 107.043C121.687 107.116 121.676 107.189 121.65 107.257C121.624 107.325 121.586 107.388 121.536 107.441C121.486 107.495 121.426 107.538 121.359 107.568C121.292 107.597 121.22 107.614 121.147 107.616C120.698 107.622 120.257 107.743 119.866 107.967C118.78 108.609 118.216 110.127 118.429 111.834L118.555 112.854L117.649 112.401C117.634 112.401 116.164 111.687 115.015 112.323C113.554 113.13 112.885 114.975 113.389 116.805C113.409 116.875 113.415 116.948 113.406 117.021C113.397 117.093 113.374 117.163 113.338 117.226C113.302 117.289 113.254 117.345 113.196 117.389C113.139 117.434 113.073 117.467 113.002 117.486C112.953 117.501 112.901 117.508 112.849 117.507Z" fill="#001433"/>
<path d="M123.088 136.884H123.049C122.977 136.88 122.905 136.862 122.839 136.831C122.773 136.8 122.714 136.756 122.665 136.702C122.616 136.648 122.578 136.585 122.553 136.516C122.529 136.447 122.518 136.375 122.521 136.302C122.581 135 121.921 133.839 120.865 133.413C120.527 133.289 120.167 133.233 119.806 133.249C119.446 133.265 119.092 133.352 118.765 133.506L118.045 133.827L117.988 133.041C117.877 131.517 116.95 130.218 115.684 129.807C114.887 129.575 114.032 129.647 113.284 130.011C113.218 130.043 113.146 130.061 113.073 130.065C113 130.07 112.926 130.059 112.857 130.035C112.788 130.01 112.724 129.972 112.669 129.923C112.615 129.873 112.571 129.813 112.54 129.747C112.508 129.68 112.491 129.608 112.488 129.535C112.484 129.461 112.496 129.388 112.521 129.319C112.547 129.25 112.586 129.187 112.636 129.133C112.686 129.079 112.746 129.036 112.813 129.006C113.812 128.525 114.953 128.435 116.014 128.754C116.776 129.021 117.454 129.487 117.976 130.102C118.499 130.718 118.848 131.462 118.987 132.258C119.74 132.055 120.538 132.1 121.264 132.384C122.764 132.984 123.697 134.583 123.613 136.356C123.608 136.493 123.551 136.624 123.453 136.721C123.356 136.819 123.226 136.877 123.088 136.884Z" fill="#001433"/>
<path d="M117.544 147.786C116.275 147.748 115.057 147.276 114.094 146.448C113.987 146.347 113.924 146.208 113.919 146.061C113.914 145.913 113.968 145.77 114.069 145.663C114.17 145.556 114.309 145.493 114.456 145.488C114.603 145.483 114.746 145.537 114.853 145.638C114.967 145.746 117.646 148.17 120.595 145.203C120.646 145.148 120.707 145.105 120.775 145.075C120.843 145.044 120.917 145.028 120.991 145.027C121.065 145.026 121.139 145.039 121.208 145.067C121.277 145.095 121.34 145.136 121.392 145.189C121.445 145.241 121.487 145.304 121.515 145.372C121.543 145.441 121.557 145.515 121.556 145.589C121.555 145.664 121.539 145.737 121.509 145.805C121.479 145.873 121.436 145.935 121.381 145.986C120.022 147.351 118.69 147.786 117.544 147.786Z" fill="#001433"/>
<path d="M153.025 131.358L141.949 206.814C141.85 207.49 141.897 208.181 142.089 208.837C142.28 209.494 142.61 210.102 143.057 210.619C143.505 211.137 144.058 211.552 144.68 211.837C145.302 212.121 145.978 212.268 146.662 212.268H197.893L208.978 131.358H153.025Z" fill="#FFDDCF"/>
<path d="M222.76 206.649L208.978 131.349L193.378 206.715C193.239 207.385 193.251 208.078 193.414 208.744C193.576 209.409 193.885 210.03 194.317 210.561C194.75 211.092 195.295 211.52 195.914 211.813C196.532 212.107 197.209 212.259 197.893 212.259H218.074C218.772 212.258 219.46 212.105 220.091 211.81C220.723 211.514 221.282 211.084 221.728 210.549C222.175 210.014 222.499 209.387 222.678 208.714C222.856 208.04 222.884 207.335 222.76 206.649Z" fill="#73CD9A"/>
<path d="M208.979 131.612H152.951V125.966C152.951 125.409 153.172 124.875 153.566 124.481C153.959 124.088 154.494 123.866 155.051 123.866H206.882C207.438 123.866 207.973 124.088 208.366 124.481C208.76 124.875 208.982 125.409 208.982 125.966L208.979 131.612Z" fill="#FFDDCF"/>
<path d="M172.501 186.312C181.974 186.312 189.652 178.633 189.652 169.161C189.652 159.688 181.974 152.01 172.501 152.01C163.029 152.01 155.35 159.688 155.35 169.161C155.35 178.633 163.029 186.312 172.501 186.312Z" fill="#ACEEED"/>
<path d="M153.955 131.358H201.418" stroke="#FFD3D3" stroke-width="2" stroke-miterlimit="10" stroke-linecap="round"/>
<path d="M180.567 166.159C182.429 163.34 182.334 159.996 180.357 158.691C178.38 157.385 175.268 158.613 173.407 161.432C171.546 164.252 171.64 167.595 173.617 168.901C175.594 170.206 178.706 168.979 180.567 166.159Z" fill="#0053CF"/>
<path d="M179.893 159.384L174.139 168.105" stroke="#001433" stroke-width="2" stroke-miterlimit="10" stroke-linecap="round"/>
<path d="M170.579 178.44C172.167 176.681 171.421 173.42 168.913 171.157C166.405 168.893 163.085 168.484 161.498 170.243C159.91 172.001 160.656 175.262 163.164 177.526C165.672 179.789 168.992 180.199 170.579 178.44Z" fill="#0053CF"/>
<path d="M162.119 170.817L169.871 177.816" stroke="#001433" stroke-width="2" stroke-miterlimit="10" stroke-linecap="round"/>
<path d="M194.588 210.867L206.81 193.245C206.949 193.043 207.135 192.878 207.352 192.764C207.569 192.651 207.811 192.591 208.056 192.591C208.301 192.591 208.543 192.651 208.76 192.764C208.977 192.878 209.163 193.043 209.303 193.245L221.45 210.867" stroke="#0053CF" stroke-width="2" stroke-miterlimit="10" stroke-linecap="round"/>
<path d="M85.5795 130.991H73.4685C58.7895 130.991 46.5285 145.208 44.9685 159.467H113.749C112.162 145.208 100.249 130.991 85.5795 130.991Z" fill="#001433"/>
<path d="M44.9593 208.436C44.9593 212.034 46.3883 215.483 48.9318 218.027C51.4754 220.57 54.9252 221.999 58.5223 221.999H100.522C104.119 221.999 107.569 220.57 110.113 218.027C112.656 215.483 114.085 212.034 114.085 208.436V202.709H44.9593V208.436Z" fill="#001433"/>
<path d="M98.0895 184.827C98.0895 188.904 93.9345 192.21 88.8075 192.21C83.6805 192.21 79.5255 188.91 79.5255 184.827C79.5255 188.904 75.3705 192.21 70.2435 192.21C65.1165 192.21 60.9495 188.904 60.9495 184.827C60.9495 188.904 56.7945 192.21 51.6675 192.21C49.2279 192.249 46.8512 191.435 44.9475 189.909V202.71H114.088V189.912C112.184 191.434 109.809 192.247 107.371 192.21C102.244 192.21 98.0895 188.904 98.0895 184.827Z" fill="#ACEEED"/>
<path d="M44.9593 168.33V189.684C46.8083 191.329 49.2045 192.225 51.6793 192.198C56.8063 192.198 60.9613 188.598 60.9613 184.128C60.9613 188.583 65.1163 192.198 70.2433 192.198C75.3703 192.198 79.5253 188.598 79.5253 184.128C79.5253 188.583 83.6803 192.198 88.8073 192.198C93.9343 192.198 98.0893 188.598 98.0893 184.128C98.0893 188.583 102.244 192.198 107.371 192.198C109.845 192.226 112.24 191.33 114.088 189.687V168.33H44.9593Z" fill="#73CD9A"/>
<path d="M78.3645 143.166C79.5939 143.166 80.5905 141.409 80.5905 139.242C80.5905 137.075 79.5939 135.318 78.3645 135.318C77.1351 135.318 76.1385 137.075 76.1385 139.242C76.1385 141.409 77.1351 143.166 78.3645 143.166Z" fill="#0053CF"/>
<path d="M92.078 142.638C93.1427 142.024 93.1274 140.004 92.0438 138.127C90.9602 136.25 89.2187 135.227 88.154 135.842C87.0894 136.457 87.1047 138.476 88.1883 140.353C89.2718 142.23 91.0134 143.253 92.078 142.638Z" fill="#0053CF"/>
<path d="M68.4121 140.276C69.4282 138.362 69.3716 136.343 68.2857 135.766C67.1998 135.19 65.4958 136.275 64.4798 138.189C63.4637 140.103 63.5202 142.122 64.6061 142.698C65.692 143.275 67.396 142.19 68.4121 140.276Z" fill="#0053CF"/>
<path d="M114.088 159.5V159.467C114.078 158.631 113.737 157.833 113.14 157.248C112.543 156.663 111.738 156.338 110.902 156.344H48.1453C47.3093 156.338 46.5047 156.663 45.9076 157.248C45.3106 157.833 44.9696 158.631 44.9593 159.467V167.183C44.9593 168.028 45.295 168.839 45.8925 169.436C46.49 170.034 47.3003 170.369 48.1453 170.369H110.902C111.747 170.369 112.558 170.034 113.155 169.436C113.753 168.839 114.088 168.028 114.088 167.183V159.5Z" fill="#FFD3D3"/>
<path d="M133.354 108.905L130.456 173.735C129.856 186.917 129.267 200.098 128.689 213.278C129.979 214.208 131.511 214.741 133.099 214.813C134.687 214.885 136.261 214.492 137.629 213.683L139.249 177.185L142.285 109.307L133.354 108.905Z" fill="#ACEEED"/>
<path d="M142.424 109.647C142.509 108.558 140.534 107.517 138.013 107.321C135.492 107.125 133.38 107.848 133.296 108.937C133.211 110.025 135.186 111.067 137.706 111.263C140.227 111.459 142.339 110.736 142.424 109.647Z" fill="#0053CF"/>
<path d="M165.727 160.427L153.049 227.951C152.879 228.843 152.403 229.647 151.704 230.225C151.005 230.803 150.126 231.119 149.218 231.119L117.649 231.017C116.742 231.017 115.863 230.699 115.165 230.117C114.492 229.514 114.028 228.712 113.839 227.828C113.272 225.608 108.487 197.804 102.112 159.803L165.727 160.427Z" fill="#001433"/>
<path d="M167.149 162.366L101.179 162.018L101.095 161.007C101.074 160.755 101.044 160.347 101.02 159.846C100.477 148.101 106.375 137.196 116.8 130.668C127.225 124.14 139.684 123.57 150.037 129.198C154.068 131.384 157.601 134.384 160.413 138.007C163.224 141.631 165.252 145.798 166.369 150.246C167.283 153.87 167.578 157.623 167.242 161.346L167.149 162.366ZM103.249 159.81L165.115 160.137C165.294 156.992 164.99 153.839 164.215 150.786C163.173 146.635 161.28 142.747 158.656 139.366C156.032 135.986 152.734 133.187 148.972 131.148C139.336 125.904 127.747 126.429 117.973 132.549C108.199 138.669 102.727 148.812 103.234 159.744L103.249 159.81Z" fill="#0053CF"/>
<path d="M164.833 151.754L103.501 151.649C103.207 151.649 102.925 151.532 102.717 151.324C102.508 151.116 102.391 150.834 102.391 150.539C102.391 150.245 102.508 149.963 102.717 149.754C102.925 149.546 103.207 149.429 103.501 149.429L164.836 149.537C165.12 149.552 165.388 149.675 165.584 149.882C165.78 150.088 165.889 150.361 165.889 150.646C165.889 150.93 165.78 151.204 165.584 151.41C165.388 151.616 165.12 151.74 164.836 151.754H164.833Z" fill="#0053CF"/>
<path d="M199.78 283.257H66.5325C63.4833 283.257 60.4639 282.657 57.6468 281.49C54.8296 280.324 52.2698 278.613 50.1136 276.458C47.9574 274.302 46.247 271.742 45.08 268.925C43.9131 266.108 43.3125 263.089 43.3125 260.04V199.299H222.997V260.04C222.997 266.197 220.551 272.102 216.197 276.456C211.843 280.81 205.938 283.257 199.78 283.257Z" fill="#43CECC"/>
<path d="M184.717 258.992C197.099 258.992 207.136 248.955 207.136 236.573C207.136 224.192 197.099 214.154 184.717 214.154C172.336 214.154 162.298 224.192 162.298 236.573C162.298 248.955 172.336 258.992 184.717 258.992Z" fill="#FFC9B2"/>
<path d="M135.388 273.906C135.112 273.906 134.845 273.802 134.641 273.616C134.437 273.429 134.31 273.173 134.284 272.898L127.438 199.398C127.417 199.249 127.427 199.098 127.466 198.953C127.505 198.807 127.574 198.672 127.667 198.554C127.76 198.436 127.876 198.338 128.008 198.267C128.14 198.195 128.286 198.151 128.435 198.137C128.585 198.123 128.736 198.14 128.879 198.186C129.022 198.233 129.154 198.307 129.267 198.406C129.38 198.505 129.472 198.626 129.538 198.761C129.603 198.897 129.64 199.044 129.646 199.194L136.492 272.694C136.518 272.986 136.427 273.276 136.239 273.501C136.052 273.726 135.782 273.867 135.49 273.894L135.388 273.906Z" fill="#0053CF"/>
<path d="M230.705 176.73C230.544 176.729 230.386 176.694 230.24 176.627C230.095 176.56 229.966 176.462 229.862 176.34L137.618 68.0698L41.7315 175.884C41.5362 176.103 41.2616 176.236 40.9682 176.254C40.6748 176.271 40.3866 176.171 40.167 175.975C39.9474 175.78 39.8144 175.505 39.7973 175.212C39.7801 174.919 39.8802 174.63 40.0755 174.411L137.654 64.6918L138.482 65.6608L231.548 174.9C231.685 175.061 231.773 175.258 231.802 175.468C231.831 175.678 231.8 175.892 231.711 176.084C231.622 176.277 231.48 176.44 231.302 176.554C231.124 176.669 230.916 176.73 230.705 176.73Z" fill="#0053CF"/>
<path d="M113.149 183.267C119.149 185.169 125.875 181.851 128.017 175.92C128.404 174.851 128.635 173.733 128.704 172.599C128.728 172.23 128.734 171.864 128.722 171.498C128.697 170.909 128.63 170.322 128.521 169.743L128.422 169.17L126.298 157.134C126.125 156.159 125.687 155.251 125.032 154.509C124.378 153.767 123.532 153.219 122.587 152.925C121.642 152.63 120.635 152.602 119.674 152.841C118.714 153.081 117.838 153.58 117.142 154.284L117.088 154.341C114.688 156.765 112.924 158.496 110.389 161.28C109.126 162.663 108.055 163.89 107.221 164.88C106.351 165.899 105.7 167.086 105.31 168.369C104.392 171.384 104.7 174.64 106.167 177.429C107.635 180.218 110.144 182.316 113.149 183.267Z" fill="#FF7D49"/>
<path d="M112.222 171.896C113.43 171.896 114.409 170.917 114.409 169.709C114.409 168.502 113.43 167.522 112.222 167.522C111.015 167.522 110.035 168.502 110.035 169.709C110.035 170.917 111.015 171.896 112.222 171.896Z" fill="#F23838"/>
<path d="M118.285 179.495C119.493 179.495 120.472 178.516 120.472 177.308C120.472 176.1 119.493 175.121 118.285 175.121C117.077 175.121 116.098 176.1 116.098 177.308C116.098 178.516 117.077 179.495 118.285 179.495Z" fill="#ACEEED"/>
<path d="M122.002 170.325C123.21 170.325 124.189 169.345 124.189 168.138C124.189 166.93 123.21 165.951 122.002 165.951C120.795 165.951 119.815 166.93 119.815 168.138C119.815 169.345 120.795 170.325 122.002 170.325Z" fill="#F23838"/>
<path d="M103.442 165.683C109.664 164.645 114.137 158.639 113.342 152.381C113.2 151.254 112.897 150.152 112.442 149.111C112.295 148.772 112.142 148.442 111.959 148.121C111.67 147.608 111.344 147.117 110.984 146.651L110.642 146.183L103.28 136.427C102.681 135.64 101.878 135.033 100.959 134.671C100.039 134.308 99.0371 134.206 98.0629 134.374C97.0888 134.542 96.1794 134.974 95.434 135.624C94.6886 136.273 94.1357 137.114 93.8356 138.056L93.8146 138.128C92.7826 141.374 91.9936 143.726 90.9976 147.353C90.5026 149.153 90.0976 150.74 89.7976 151.991C89.4875 153.294 89.4477 154.647 89.6806 155.966C90.2304 159.073 91.9847 161.836 94.5617 163.656C97.1388 165.476 100.33 166.204 103.442 165.683Z" fill="#FF7D49"/>
<path d="M96.4606 156.209C97.6685 156.209 98.6476 155.23 98.6476 154.022C98.6476 152.815 97.6685 151.835 96.4606 151.835C95.2528 151.835 94.2736 152.815 94.2736 154.022C94.2736 155.23 95.2528 156.209 96.4606 156.209Z" fill="#F23838"/>
<path d="M105.313 160.224C106.521 160.224 107.5 159.245 107.5 158.037C107.5 156.829 106.521 155.85 105.313 155.85C104.106 155.85 103.126 156.829 103.126 158.037C103.126 159.245 104.106 160.224 105.313 160.224Z" fill="#F23838"/>
<path d="M104.455 150.365C105.663 150.365 106.642 149.386 106.642 148.178C106.642 146.971 105.663 145.991 104.455 145.991C103.248 145.991 102.268 146.971 102.268 148.178C102.268 149.386 103.248 150.365 104.455 150.365Z" fill="#F23838"/>
<path d="M98.1045 191.4C104.17 189.684 107.947 183.204 106.465 177.084C106.199 175.979 105.776 174.918 105.208 173.934C105.025 173.613 104.83 173.304 104.608 173.007C104.264 172.528 103.885 172.075 103.474 171.651L103.072 171.228L94.6725 162.354C93.9902 161.639 93.1249 161.125 92.1709 160.868C91.2168 160.611 90.2106 160.621 89.2617 160.896C88.3128 161.172 87.4577 161.702 86.7894 162.43C86.121 163.158 85.6652 164.055 85.4715 165.024L85.4565 165.102C84.7935 168.441 84.2565 170.865 83.6865 174.582C83.3865 176.433 83.1795 178.047 83.0205 179.325C82.8555 180.654 82.9668 182.003 83.3475 183.288C84.243 186.311 86.2952 188.858 89.0583 190.377C91.8214 191.896 95.0721 192.264 98.1045 191.4Z" fill="#FF7D49"/>
<path d="M89.8666 182.777C91.0745 182.777 92.0536 181.798 92.0536 180.59C92.0536 179.382 91.0745 178.403 89.8666 178.403C88.6588 178.403 87.6796 179.382 87.6796 180.59C87.6796 181.798 88.6588 182.777 89.8666 182.777Z" fill="#ACEEED"/>
<path d="M99.1124 185.781C100.32 185.781 101.299 184.802 101.299 183.594C101.299 182.386 100.32 181.407 99.1124 181.407C97.9045 181.407 96.9254 182.386 96.9254 183.594C96.9254 184.802 97.9045 185.781 99.1124 185.781Z" fill="#ACEEED"/>
<path d="M97.1623 176.079C98.3701 176.079 99.3493 175.099 99.3493 173.892C99.3493 172.684 98.3701 171.705 97.1623 171.705C95.9545 171.705 94.9753 172.684 94.9753 173.892C94.9753 175.099 95.9545 176.079 97.1623 176.079Z" fill="#F23838"/>
<path d="M144.103 46.7696H131.17C129.719 46.7696 128.542 47.9462 128.542 49.3976V86.6996C128.542 88.151 129.719 89.3276 131.17 89.3276H144.103C145.555 89.3276 146.731 88.151 146.731 86.6996V49.3976C146.731 47.9462 145.555 46.7696 144.103 46.7696Z" fill="#0053CF"/>
<path d="M229.264 175.154H39.8055C36.4089 175.154 33.6555 177.908 33.6555 181.304V193.145C33.6555 196.542 36.4089 199.295 39.8055 199.295H229.264C232.661 199.295 235.414 196.542 235.414 193.145V181.304C235.414 177.908 232.661 175.154 229.264 175.154Z" fill="#0053CF"/>
<path d="M239.399 268.734L220.441 280.53C219.822 280.916 219.336 281.483 219.051 282.156C218.766 282.828 218.695 283.572 218.848 284.286C218.948 284.743 219.137 285.175 219.405 285.559C219.673 285.942 220.014 286.269 220.409 286.52C220.803 286.771 221.244 286.941 221.704 287.021C222.165 287.101 222.637 287.089 223.093 286.986L256.694 279.42C258.097 279.104 259.325 278.261 260.124 277.065C260.923 275.868 261.232 274.411 260.986 272.994L259.595 264.945L239.399 268.734Z" fill="#73CD9A"/>
<path d="M300.824 251.501L299.81 273.806C299.776 274.536 299.968 275.257 300.36 275.873C300.752 276.489 301.325 276.969 302 277.247C302.434 277.426 302.899 277.516 303.368 277.514C303.837 277.512 304.301 277.417 304.733 277.235C305.165 277.052 305.557 276.786 305.886 276.452C306.215 276.117 306.475 275.721 306.65 275.285L319.442 243.302C319.976 241.967 319.977 240.477 319.444 239.141C318.911 237.805 317.886 236.725 316.58 236.123L309.158 232.712L300.824 251.501Z" fill="#73CD9A"/>
<path d="M242.878 166.757L216.612 171.668L234.914 269.557L261.179 264.646L242.878 166.757Z" fill="#FFA1A1"/>
<path d="M264.53 204.569L251.17 227.71L299.091 255.377L312.452 232.236L264.53 204.569Z" fill="#FFA1A1"/>
<path d="M268.442 213.836L243.014 219.959C242.831 219.641 242.369 218.822 241.814 217.766C238.778 211.826 237.668 206.93 234.125 192.719C233.321 189.488 233.525 190.286 233.24 189.179C230.948 179.879 229.34 172.379 228.293 167.303L254.093 160.403L268.442 213.836Z" fill="#FFA1A1"/>
<path d="M241.828 217.767C243.454 221.264 245.958 224.281 249.094 226.524C250.14 227.258 251.251 227.896 252.412 228.429L271.351 208.506C271.351 208.506 265.594 203.217 263.251 194.442L241.828 217.767Z" fill="#FFA1A1"/>
<path d="M204.865 149.388C204.658 150.948 204.424 152.505 204.19 154.062L210.262 155.562L212.338 173.649L262.69 167.841L259.786 145.845C259.786 145.845 271.063 132.45 255.433 119.052C255.433 119.052 242.635 108.408 222.868 109.995L195.304 131.223L198.649 137.244L206.065 139.206L205.165 146.982C205.073 147.786 204.973 148.588 204.865 149.388Z" fill="#001433"/>
<path d="M218.402 65.6608L231.683 66.9298L233.15 51.6988C233.226 50.8967 233.144 50.0873 232.908 49.317C232.671 48.5467 232.285 47.8304 231.772 47.2092C231.259 46.5879 230.629 46.0739 229.917 45.6963C229.205 45.3188 228.426 45.0852 227.624 45.0088L226.55 44.9068C225.747 44.8303 224.938 44.9125 224.168 45.1488C223.397 45.3852 222.681 45.7709 222.06 46.2841C221.439 46.7972 220.925 47.4277 220.547 48.1396C220.17 48.8514 219.936 49.6307 219.86 50.4328L218.402 65.6608Z" fill="#73CD9A"/>
<path d="M225.028 65.0366L236.749 71.3936L244.039 57.9416C244.424 57.2335 244.665 56.4566 244.748 55.6554C244.832 54.8542 244.757 54.0443 244.528 53.272C244.299 52.4997 243.92 51.7802 243.412 51.1545C242.905 50.5288 242.279 50.0093 241.57 49.6256L240.628 49.1156C239.198 48.3404 237.518 48.165 235.958 48.6279C234.398 49.0909 233.086 50.1544 232.309 51.5846L225.028 65.0366Z" fill="#73CD9A"/>
<path d="M230.87 64.7968L237.314 76.4758L250.709 69.0838C251.413 68.6942 252.035 68.1696 252.537 67.5399C253.039 66.9103 253.412 66.1878 253.635 65.4139C253.858 64.64 253.926 63.8298 253.836 63.0295C253.745 62.2293 253.498 61.4546 253.109 60.7498L252.59 59.8108C251.802 58.3879 250.482 57.3358 248.919 56.8858C247.357 56.4357 245.679 56.6246 244.256 57.4108L230.87 64.7968Z" fill="#73CD9A"/>
<path d="M208.732 71.8703C210.463 68.8703 212.608 66.2513 215.377 64.4453C223.657 59.0453 234.727 63.8453 240.436 70.7603C242.698 73.5053 243.61 76.9613 243.811 80.5133C244.126 86.1143 242.362 91.6133 239.152 96.2243C231.292 107.483 211.462 136.355 182.698 181.283C181.351 183.383 178.93 184.37 176.938 183.782C174.337 183.017 172.612 179.618 173.938 176.39C178.105 167.534 180.445 157.232 183.595 147.956C186.981 137.982 190.369 128.006 193.759 118.028C197.017 108.428 199.237 98.5283 202.267 88.8773C203.905 83.6633 205.669 77.1833 208.732 71.8703Z" fill="#FFC043"/>
<path d="M215.347 102.984C215.202 102.984 215.059 102.955 214.924 102.9L202.087 97.5836C201.816 97.4714 201.6 97.2559 201.487 96.9844C201.374 96.7129 201.374 96.4078 201.486 96.1361C201.598 95.8644 201.814 95.6483 202.085 95.5355C202.357 95.4227 202.662 95.4224 202.933 95.5346L215.773 100.848C216.009 100.947 216.204 101.125 216.323 101.351C216.443 101.577 216.481 101.837 216.431 102.088C216.381 102.339 216.246 102.565 216.048 102.727C215.851 102.89 215.603 102.979 215.347 102.981V102.984Z" fill="#FFDDCF"/>
<path d="M209.992 118.536C209.847 118.536 209.704 118.507 209.569 118.452L196.732 113.142C196.461 113.029 196.245 112.814 196.132 112.542C196.019 112.271 196.019 111.966 196.131 111.694C196.243 111.422 196.459 111.206 196.73 111.094C197.002 110.981 197.307 110.98 197.578 111.093L210.415 116.403C210.651 116.502 210.845 116.679 210.965 116.905C211.085 117.131 211.123 117.391 211.074 117.642C211.024 117.892 210.889 118.118 210.692 118.281C210.495 118.444 210.248 118.534 209.992 118.536Z" fill="#FFDDCF"/>
<path d="M202.949 137.559C202.803 137.559 202.66 137.53 202.526 137.475L189.689 132.165C189.554 132.109 189.432 132.028 189.329 131.925C189.226 131.822 189.144 131.7 189.088 131.566C189.032 131.431 189.003 131.287 189.003 131.142C189.003 130.996 189.032 130.852 189.087 130.717C189.143 130.583 189.224 130.46 189.327 130.357C189.43 130.254 189.552 130.173 189.686 130.117C189.821 130.061 189.965 130.032 190.11 130.032C190.256 130.032 190.4 130.06 190.535 130.116L203.372 135.426C203.61 135.522 203.808 135.699 203.93 135.926C204.052 136.152 204.092 136.415 204.042 136.667C203.992 136.92 203.855 137.147 203.656 137.31C203.456 137.472 203.206 137.561 202.949 137.559Z" fill="#FFDDCF"/>
<path d="M241.705 115.833H233.006C231.98 115.833 230.996 115.425 230.271 114.7C229.546 113.975 229.139 112.991 229.139 111.966V98.8769H247.708V109.83C247.709 110.618 247.554 111.399 247.252 112.128C246.951 112.856 246.509 113.518 245.951 114.076C245.394 114.633 244.732 115.075 244.003 115.377C243.275 115.678 242.494 115.833 241.705 115.833Z" fill="#FFD3D3"/>
<path d="M206.056 139.206L204.58 151.422L227.998 140.886L224.206 138.135L206.056 139.206Z" fill="#001433"/>
<path d="M247.708 98.8766H229.138V98.0156C229.138 97.139 229.486 96.2981 230.104 95.6768C230.723 95.0556 231.562 94.7046 232.438 94.7006H244.381C244.816 94.7006 245.246 94.7864 245.648 94.9532C246.049 95.12 246.414 95.3644 246.72 95.6724C247.027 95.9805 247.27 96.346 247.435 96.7481C247.6 97.1502 247.683 97.581 247.681 98.0156L247.708 98.8766Z" fill="#001433"/>
<path d="M247.708 106.188L245.665 106.083C245.665 106.083 245.665 105.063 245.665 103.983C245.665 102.903 245.863 101.097 244.819 100.419C244.334 100.151 243.772 100.058 243.226 100.158C241.192 100.383 239.197 100.917 237.163 101.109C235.314 101.279 233.45 101.01 231.724 100.323C230.807 99.9579 229.941 99.478 229.144 98.8948C232.205 98.5915 235.279 98.4423 238.354 98.4478C241.723 98.4478 244.852 98.6158 247.708 98.8888V106.188Z" fill="#001433"/>
<path d="M213.679 140.183C213.395 140.174 213.125 140.055 212.925 139.852C212.725 139.649 212.611 139.377 212.606 139.092C212.602 138.807 212.707 138.531 212.9 138.322C213.093 138.112 213.359 137.985 213.643 137.966C223.327 137.646 232.905 135.842 242.041 132.617C242.179 132.569 242.325 132.548 242.471 132.556C242.617 132.564 242.76 132.601 242.892 132.664C243.024 132.727 243.142 132.816 243.239 132.925C243.337 133.033 243.412 133.16 243.46 133.298C243.509 133.436 243.53 133.582 243.522 133.728C243.514 133.874 243.477 134.017 243.414 134.149C243.351 134.281 243.262 134.399 243.153 134.496C243.044 134.594 242.917 134.669 242.779 134.717C238.278 136.304 233.665 137.559 228.979 138.47C223.946 139.444 218.843 140.016 213.718 140.183H213.679Z" fill="#0053CF"/>
<path d="M225.964 158.523C221.037 158.524 216.13 157.887 211.366 156.627C211.088 156.546 210.852 156.36 210.709 156.107C210.566 155.854 210.528 155.556 210.603 155.276C210.677 154.995 210.858 154.755 211.108 154.607C211.357 154.459 211.654 154.414 211.936 154.482C220.002 156.634 228.455 156.893 236.638 155.24C244.82 153.588 252.51 150.067 259.108 144.954C259.224 144.865 259.356 144.799 259.496 144.761C259.637 144.723 259.784 144.713 259.928 144.732C260.073 144.751 260.213 144.798 260.339 144.87C260.465 144.943 260.576 145.04 260.665 145.155C260.754 145.27 260.82 145.402 260.858 145.543C260.896 145.684 260.906 145.83 260.887 145.975C260.869 146.12 260.822 146.259 260.749 146.386C260.677 146.512 260.58 146.623 260.464 146.712C253.135 152.364 244.537 156.144 235.417 157.725C232.294 158.257 229.132 158.524 225.964 158.523Z" fill="#0053CF"/>
<path d="M232.807 112.883H232.654C231.85 112.844 231.084 112.526 230.488 111.983C230.43 111.936 230.382 111.877 230.348 111.81C230.313 111.743 230.293 111.67 230.287 111.595C230.281 111.52 230.291 111.445 230.316 111.374C230.34 111.303 230.379 111.237 230.429 111.182C230.479 111.126 230.541 111.081 230.609 111.05C230.677 111.018 230.751 111.001 230.826 110.999C230.901 110.997 230.976 111.011 231.046 111.039C231.116 111.066 231.179 111.108 231.232 111.161C231.641 111.523 232.16 111.734 232.705 111.761C233.32 111.771 233.918 111.558 234.388 111.161C234.499 111.071 234.639 111.026 234.781 111.037C234.924 111.047 235.056 111.112 235.152 111.218C235.248 111.323 235.299 111.462 235.295 111.604C235.292 111.747 235.233 111.883 235.132 111.983C234.493 112.556 233.666 112.876 232.807 112.883Z" fill="#FF7D49"/>
<path d="M252.127 229.536C251.994 229.536 251.862 229.513 251.737 229.467C251.458 229.362 244.879 226.83 241.768 220.524C241.294 219.825 238.318 215.124 235.204 202.671L230.452 183.471C230.394 183.189 230.447 182.896 230.6 182.653C230.753 182.41 230.995 182.236 231.274 182.167C231.553 182.098 231.847 182.14 232.096 182.285C232.344 182.429 232.527 182.663 232.606 182.94L237.355 202.14C240.55 214.899 243.598 219.276 243.628 219.318L243.724 219.48C246.424 225.057 252.457 227.373 252.517 227.397C252.761 227.487 252.966 227.66 253.095 227.886C253.223 228.112 253.268 228.377 253.222 228.633C253.175 228.889 253.04 229.12 252.84 229.286C252.64 229.452 252.388 229.543 252.127 229.542V229.536Z" fill="#0053CF"/>
<path d="M231.083 279.777C230.997 279.777 230.912 279.757 230.835 279.719C230.758 279.681 230.691 279.626 230.639 279.558L228.35 276.534C228.306 276.475 228.274 276.408 228.256 276.336C228.239 276.265 228.235 276.191 228.246 276.118C228.257 276.045 228.282 275.976 228.32 275.913C228.358 275.85 228.408 275.795 228.467 275.751C228.526 275.707 228.593 275.675 228.664 275.658C228.736 275.64 228.81 275.636 228.882 275.647C228.955 275.658 229.025 275.683 229.088 275.721C229.151 275.759 229.206 275.809 229.25 275.868L231.53 278.889C231.618 279.007 231.656 279.155 231.635 279.3C231.614 279.446 231.536 279.578 231.419 279.666C231.322 279.739 231.204 279.778 231.083 279.777Z" fill="#FFDDCF"/>
<path d="M235.624 276.756C235.538 276.755 235.453 276.735 235.376 276.697C235.299 276.658 235.232 276.602 235.18 276.534L232.903 273.51C232.86 273.45 232.828 273.383 232.81 273.312C232.792 273.241 232.789 273.167 232.8 273.094C232.811 273.021 232.836 272.951 232.874 272.888C232.911 272.825 232.961 272.77 233.02 272.727C233.08 272.683 233.147 272.651 233.218 272.633C233.289 272.616 233.363 272.612 233.436 272.623C233.509 272.634 233.579 272.659 233.642 272.697C233.705 272.735 233.76 272.784 233.803 272.844L236.08 275.868C236.169 275.985 236.207 276.133 236.187 276.278C236.167 276.424 236.09 276.556 235.972 276.645C235.872 276.719 235.749 276.758 235.624 276.756Z" fill="#FFDDCF"/>
<path d="M304.616 263.354H304.55L300.785 262.949C300.641 262.933 300.509 262.861 300.417 262.749C300.325 262.637 300.281 262.494 300.293 262.349C300.311 262.206 300.384 262.076 300.495 261.985C300.607 261.893 300.749 261.848 300.893 261.857L304.658 262.262C304.799 262.277 304.93 262.346 305.022 262.454C305.115 262.563 305.162 262.702 305.154 262.844C305.147 262.987 305.084 263.12 304.981 263.218C304.877 263.316 304.74 263.37 304.598 263.369L304.616 263.354Z" fill="#FFDDCF"/>
<path d="M304.807 257.976H304.747L300.982 257.568C300.838 257.553 300.705 257.481 300.613 257.369C300.521 257.256 300.477 257.112 300.49 256.968C300.509 256.825 300.581 256.694 300.692 256.602C300.804 256.511 300.947 256.465 301.09 256.476L304.864 256.884C305.006 256.899 305.136 256.967 305.229 257.075C305.321 257.183 305.368 257.322 305.361 257.464C305.354 257.606 305.292 257.74 305.189 257.838C305.086 257.936 304.95 257.991 304.807 257.991V257.976Z" fill="#FFDDCF"/>
<path d="M219.919 285.746C219.785 285.744 219.656 285.694 219.556 285.604C219.456 285.514 219.393 285.391 219.376 285.258C219.36 285.125 219.393 284.99 219.469 284.879C219.544 284.768 219.657 284.688 219.787 284.654L259.762 274.634C259.905 274.601 260.055 274.624 260.181 274.7C260.307 274.776 260.398 274.897 260.434 275.039C260.452 275.11 260.456 275.183 260.446 275.255C260.435 275.327 260.411 275.397 260.373 275.459C260.336 275.521 260.286 275.576 260.228 275.619C260.169 275.663 260.103 275.694 260.032 275.711L220.054 285.728C220.01 285.74 219.965 285.746 219.919 285.746Z" fill="#FFDDCF"/>
<path d="M303.688 276.831C303.623 276.831 303.558 276.818 303.496 276.795C303.359 276.744 303.246 276.641 303.184 276.507C303.123 276.374 303.116 276.222 303.166 276.084L317.23 237.873C317.254 237.802 317.292 237.737 317.341 237.682C317.39 237.626 317.45 237.581 317.517 237.549C317.584 237.517 317.657 237.499 317.731 237.496C317.805 237.492 317.879 237.504 317.948 237.529C318.018 237.555 318.082 237.594 318.136 237.645C318.19 237.696 318.233 237.757 318.264 237.825C318.294 237.892 318.31 237.966 318.311 238.04C318.313 238.114 318.299 238.188 318.271 238.257L304.207 276.468C304.169 276.574 304.098 276.666 304.005 276.731C303.912 276.796 303.802 276.831 303.688 276.831Z" fill="#FFDDCF"/>
<path d="M247.348 109.821H244.771V103.971H247.348C248.064 103.971 248.751 104.255 249.257 104.762C249.764 105.268 250.048 105.955 250.048 106.671V107.139C250.044 107.852 249.757 108.534 249.251 109.036C248.745 109.539 248.061 109.821 247.348 109.821Z" fill="#FFD3D3"/>
<path d="M206.056 139.206L201.07 137.865C196.765 136.709 192.391 135.825 187.975 135.216C187.553 135.145 187.12 135.174 186.71 135.301C186.301 135.427 185.927 135.648 185.617 135.945C185.446 136.122 185.301 136.325 185.188 136.545C185.043 136.825 184.95 137.13 184.915 137.445C184.783 138.57 185.515 139.626 186.547 140.106L191.665 142.506C191.449 142.644 191.262 142.825 191.115 143.036C190.969 143.248 190.866 143.487 190.813 143.739C190.768 144.181 190.867 144.626 191.095 145.008C191.324 145.389 191.671 145.686 192.082 145.854C193.741 146.409 195.472 146.952 197.272 147.468C199.912 148.23 202.456 148.872 204.892 149.412L206.056 139.206Z" fill="#FFD3D3"/>
<path d="M196.637 144.233C196.593 144.233 196.55 144.228 196.508 144.218L191.537 143.018C191.466 143.001 191.399 142.97 191.34 142.927C191.281 142.884 191.231 142.83 191.193 142.768C191.155 142.706 191.13 142.636 191.118 142.564C191.107 142.492 191.11 142.419 191.127 142.348C191.144 142.277 191.175 142.21 191.218 142.151C191.261 142.092 191.315 142.042 191.378 142.004C191.44 141.966 191.509 141.941 191.581 141.93C191.653 141.918 191.727 141.921 191.798 141.938L196.766 143.138C196.898 143.17 197.014 143.249 197.092 143.36C197.17 143.472 197.205 143.608 197.189 143.743C197.173 143.878 197.108 144.003 197.006 144.093C196.904 144.184 196.773 144.234 196.637 144.233Z" fill="#FF7D49"/>
</svg>
