<svg preserveAspectRatio="none" width="100%" height="100%" overflow="visible" style="display: block;" viewBox="0 0 312 310.047" fill="none" xmlns="http://www.w3.org/2000/svg">
<g id="DrawKit Vector Illustration Food Delivery (9) 1">
<path id="Vector" fill-rule="evenodd" clip-rule="evenodd" d="M155.793 38.649C184.229 41.4815 212.488 41.863 235.895 58.2567C264.691 78.425 292.404 103.677 298.158 138.359C304.738 178.021 293.476 219.423 267.761 250.327C239.696 284.055 199.352 314.722 155.793 309.454C114.158 304.418 96.2105 257.184 67.9869 226.165C42.1062 197.721 2.19074 176.76 0.117949 138.359C-2.00476 99.0342 24.8037 61.7745 57.9667 40.5334C86.5175 22.2465 122.054 35.2883 155.793 38.649Z" fill="var(--fill-0, #FFF8EB)"/>
<path id="Vector_2" d="M162.489 241.896C195.663 241.896 222.555 215.003 222.555 181.83C222.555 148.656 195.663 121.764 162.489 121.764C129.316 121.764 102.423 148.656 102.423 181.83C102.423 215.003 129.316 241.896 162.489 241.896Z" fill="var(--fill-0, #001B43)"/>
<path id="Vector_3" d="M162.489 230.799C189.534 230.799 211.458 208.875 211.458 181.83C211.458 154.785 189.534 132.861 162.489 132.861C135.444 132.861 113.52 154.785 113.52 181.83C113.52 208.875 135.444 230.799 162.489 230.799Z" fill="var(--fill-0, #BE1C44)"/>
<path id="Vector_4" d="M166.507 226.713C173.316 225.789 178.4 221.834 177.863 217.879C177.326 213.924 171.372 211.467 164.563 212.391C157.755 213.315 152.671 217.27 153.207 221.226C153.744 225.181 159.699 227.638 166.507 226.713Z" fill="var(--fill-0, #EE4D75)"/>
<path id="Vector_5" d="M142.066 207.875L135.683 214.803C135.514 214.987 135.526 215.274 135.71 215.443L142.638 221.826C142.822 221.995 143.109 221.983 143.278 221.799L149.66 214.871C149.83 214.687 149.818 214.4 149.634 214.231L142.706 207.849C142.522 207.679 142.235 207.691 142.066 207.875Z" fill="var(--fill-0, #FFEAC0)"/>
<path id="Vector_6" d="M195.918 175.498L189.536 182.427C189.367 182.611 189.379 182.897 189.563 183.067L196.491 189.449C196.675 189.618 196.962 189.607 197.131 189.423L203.513 182.494C203.683 182.31 203.671 182.024 203.487 181.854L196.559 175.472C196.375 175.302 196.088 175.314 195.918 175.498Z" fill="var(--fill-0, #FFEAC0)"/>
<path id="Vector_7" d="M184.95 149.526L178.567 156.455C178.398 156.639 178.41 156.925 178.594 157.095L185.522 163.477C185.706 163.647 185.993 163.635 186.162 163.451L192.544 156.522C192.714 156.338 192.702 156.052 192.518 155.882L185.59 149.5C185.406 149.331 185.119 149.342 184.95 149.526Z" fill="var(--fill-0, #FFEAC0)"/>
<path id="Vector_8" d="M186.684 210.447C188.753 210.447 190.431 208.769 190.431 206.7C190.431 204.63 188.753 202.953 186.684 202.953C184.615 202.953 182.937 204.63 182.937 206.7C182.937 208.769 184.615 210.447 186.684 210.447Z" fill="var(--fill-0, #1A7F7D)"/>
<path id="Vector_9" d="M123.981 169.221C126.05 169.221 127.728 167.543 127.728 165.474C127.728 163.404 126.05 161.727 123.981 161.727C121.911 161.727 120.234 163.404 120.234 165.474C120.234 167.543 121.911 169.221 123.981 169.221Z" fill="var(--fill-0, #FFEAC0)"/>
<path id="Vector_10" d="M202.317 166.664C203.544 165.844 203.165 163.12 201.469 160.579C199.773 158.037 197.402 156.642 196.174 157.461C194.947 158.281 195.326 161.005 197.022 163.546C198.718 166.088 201.089 167.483 202.317 166.664Z" fill="var(--fill-0, #EE4D75)"/>
<path id="Vector_11" d="M156.718 188.098L152.835 189.746L155.48 195.973L159.362 194.324L156.718 188.098Z" fill="var(--fill-0, #0C4525)"/>
<path id="Vector_12" d="M197.676 197.368L195.916 203.9L199.988 204.998L201.748 198.466L197.676 197.368Z" fill="var(--fill-0, #0C4525)"/>
<path id="Vector_13" d="M163.331 143.677L156.681 144.92L157.456 149.066L164.106 147.823L163.331 143.677Z" fill="var(--fill-0, #0C4525)"/>
<path id="Vector_14" d="M169.014 149.472C169.014 149.472 154.314 154.242 155.118 172.089C155.118 172.089 172.815 166.014 169.014 149.472Z" fill="var(--fill-0, #0C4525)"/>
<path id="Vector_15" d="M137.4 185.166C137.4 185.166 135.765 201.246 151.605 201.93C151.578 201.93 150.99 187.893 137.4 185.166Z" fill="var(--fill-0, #0C4525)"/>
<path id="Vector_16" d="M129.771 184.721C130.271 181.643 128.181 178.743 125.103 178.244C122.025 177.744 119.125 179.834 118.625 182.912C118.126 185.99 120.216 188.89 123.294 189.39C126.372 189.889 129.272 187.799 129.771 184.721Z" fill="var(--fill-0, #FFEAC0)"/>
<path id="Vector_17" d="M126.156 199.062C129.274 199.062 131.802 196.534 131.802 193.416C131.802 190.298 129.274 187.77 126.156 187.77C123.038 187.77 120.51 190.298 120.51 193.416C120.51 196.534 123.038 199.062 126.156 199.062Z" fill="var(--fill-0, #FFEAC0)"/>
<path id="Vector_18" d="M129.201 206.697C132.319 206.697 134.847 204.169 134.847 201.051C134.847 197.933 132.319 195.405 129.201 195.405C126.083 195.405 123.555 197.933 123.555 201.051C123.555 204.169 126.083 206.697 129.201 206.697Z" fill="var(--fill-0, #FFEAC0)"/>
<path id="Vector_19" d="M147.438 169.077L139.59 177.3C139.395 177.503 139.289 177.774 139.294 178.055C139.299 178.336 139.415 178.604 139.617 178.8C139.647 178.83 139.68 178.857 139.713 178.884L143.7 181.863C143.812 181.948 143.94 182.009 144.076 182.045C144.213 182.08 144.355 182.088 144.494 182.068C144.634 182.048 144.768 182.001 144.889 181.929C145.01 181.858 145.116 181.762 145.2 181.65C145.258 181.57 145.305 181.483 145.341 181.392L149.781 169.743L147.438 169.077Z" fill="var(--fill-0, #FFDDCF)"/>
<path id="Vector_20" d="M145.521 168.102L135.9 174.387C135.687 174.526 135.538 174.745 135.487 174.994C135.435 175.243 135.484 175.503 135.624 175.716C135.642 175.746 135.663 175.774 135.687 175.8L139.05 179.814C139.212 180.007 139.444 180.128 139.695 180.151C139.947 180.173 140.197 180.095 140.391 179.934C140.459 179.875 140.52 179.807 140.571 179.733L147.6 169.281L145.521 168.102Z" fill="var(--fill-0, #EE4D75)"/>
<path id="Vector_21" d="M148.575 158.565C147.018 159.246 145.679 160.343 144.705 161.736C143.805 160.836 142.254 160.2 139.794 160.119C139.902 156.711 140.994 152.019 145.815 149.73C148.51 150.768 150.788 152.666 152.295 155.13C152.641 156.003 152.903 156.907 153.078 157.83C151.539 157.705 149.994 157.957 148.575 158.565V158.565Z" fill="var(--fill-0, #EE4D75)"/>
<path id="Vector_22" d="M144.705 161.736C145.68 160.343 147.019 159.246 148.575 158.565C149.994 157.96 151.538 157.71 153.075 157.836C153.592 160.076 153.538 162.411 152.917 164.625C152.297 166.839 151.13 168.862 149.523 170.508L145.35 168.156C145.35 168.156 147.129 164.1 144.705 161.736Z" fill="var(--fill-0, #FFEAC0)"/>
<path id="Vector_23" d="M135.444 160.5C135.748 157.955 135.875 155.392 135.825 152.829C135.825 151.737 135.753 150.69 135.675 149.67C137.788 148.962 140.028 148.713 142.245 148.941C142.842 148.997 143.436 149.092 144.021 149.226C144.321 149.286 145.566 149.847 145.797 149.739C140.997 152.022 139.884 156.72 139.776 160.128C138.885 160.125 137.995 160.181 137.112 160.296C136.563 160.332 136.002 160.44 135.444 160.5Z" fill="var(--fill-0, #FFEAC0)"/>
<path id="Vector_24" d="M135.444 160.5C134.735 160.614 134.008 160.528 133.344 160.254C132.786 159.951 132.336 159.483 132.057 158.913C131.649 158.058 131.436 157.124 131.436 156.177C131.368 155.099 131.565 154.022 132.009 153.037C132.452 152.053 133.13 151.193 133.983 150.531C134.238 150.344 134.509 150.181 134.793 150.042C135.086 149.901 135.386 149.777 135.693 149.67C136.521 151.363 136.932 153.229 136.892 155.113C136.851 156.997 136.361 158.844 135.462 160.5H135.444Z" fill="var(--fill-0, #EE4D75)"/>
<path id="Vector_25" d="M178.392 193.131L170.526 201.336C170.429 201.436 170.353 201.554 170.302 201.684C170.251 201.814 170.226 201.952 170.228 202.091C170.231 202.231 170.261 202.368 170.316 202.496C170.372 202.624 170.453 202.739 170.553 202.836C170.583 202.866 170.616 202.893 170.649 202.92L174.627 205.893C174.739 205.978 174.867 206.04 175.004 206.076C175.14 206.111 175.282 206.119 175.422 206.1C175.561 206.08 175.695 206.032 175.816 205.96C175.938 205.888 176.043 205.793 176.127 205.68C176.187 205.602 176.235 205.515 176.268 205.422L180.708 193.782L178.392 193.131Z" fill="var(--fill-0, #FFDDCF)"/>
<path id="Vector_26" d="M176.535 191.952L166.911 198.237C166.807 198.305 166.717 198.393 166.646 198.496C166.576 198.598 166.526 198.714 166.5 198.836C166.475 198.958 166.474 199.084 166.497 199.207C166.52 199.33 166.567 199.446 166.635 199.551C166.656 199.586 166.681 199.619 166.707 199.65L170.064 203.661C170.145 203.757 170.244 203.837 170.356 203.895C170.467 203.953 170.589 203.988 170.715 203.999C170.84 204.01 170.967 203.996 171.087 203.958C171.207 203.92 171.318 203.859 171.414 203.778C171.481 203.72 171.54 203.655 171.591 203.583L178.623 193.131L176.535 191.952Z" fill="var(--fill-0, #EE4D75)"/>
<path id="Vector_27" d="M179.457 182.547C177.896 183.226 176.554 184.323 175.578 185.718C174.678 184.818 173.127 184.182 170.676 184.101C170.772 180.693 171.876 176.001 176.676 173.712C179.371 174.75 181.649 176.648 183.156 179.112C183.501 179.992 183.763 180.902 183.939 181.83C182.409 181.704 180.872 181.95 179.457 182.547V182.547Z" fill="var(--fill-0, #EE4D75)"/>
<path id="Vector_28" d="M175.578 185.718C176.553 184.323 177.896 183.226 179.457 182.547C180.876 181.944 182.42 181.695 183.957 181.821C184.472 184.061 184.417 186.395 183.796 188.608C183.176 190.822 182.009 192.844 180.405 194.49L176.232 192.138C176.232 192.138 178.002 188.07 175.578 185.718Z" fill="var(--fill-0, #FFEAC0)"/>
<path id="Vector_29" d="M166.317 184.467C166.621 181.921 166.748 179.357 166.698 176.793C166.698 175.701 166.626 174.654 166.557 173.634C168.667 172.926 170.904 172.677 173.118 172.905C173.716 172.961 174.309 173.056 174.894 173.19C175.194 173.25 176.439 173.811 176.67 173.703C171.87 175.986 170.754 180.684 170.67 184.092C169.761 184.088 168.853 184.144 167.952 184.26C167.411 184.359 166.865 184.428 166.317 184.467V184.467Z" fill="var(--fill-0, #FFEAC0)"/>
<path id="Vector_30" d="M166.317 184.467C165.614 184.577 164.894 184.491 164.238 184.218C163.677 183.916 163.225 183.447 162.942 182.877C162.533 182.023 162.321 181.088 162.321 180.141C162.253 179.063 162.449 177.986 162.893 177.002C163.337 176.018 164.015 175.157 164.868 174.495C165.121 174.309 165.393 174.148 165.678 174.015C165.97 173.871 166.271 173.744 166.578 173.634C167.402 175.329 167.81 177.196 167.766 179.08C167.723 180.965 167.23 182.811 166.329 184.467H166.317Z" fill="var(--fill-0, #EE4D75)"/>
<path id="Vector_31" d="M93.036 171.342C90.7734 171.343 88.6037 172.242 87.0038 173.842C85.404 175.442 84.5048 177.611 84.504 179.874V179.874V189.339C84.504 191.602 85.4028 193.773 87.0028 195.373C88.6028 196.974 90.7729 197.873 93.036 197.874H108.372V171.342H93.036ZM96.447 190.317C95.2918 190.315 94.1631 189.971 93.2033 189.328C92.2436 188.685 91.496 187.772 91.0548 186.705C90.6137 185.637 90.4989 184.462 90.725 183.33C90.951 182.197 91.5077 181.156 92.3247 180.34C93.1418 179.523 94.1825 178.967 95.3155 178.741C96.4485 178.516 97.6229 178.631 98.6903 179.073C99.7578 179.515 100.67 180.263 101.313 181.223C101.955 182.183 102.299 183.312 102.3 184.467C102.301 185.236 102.15 185.997 101.856 186.707C101.562 187.418 101.131 188.063 100.587 188.606C100.044 189.15 99.398 189.581 98.6875 189.874C97.9771 190.168 97.2157 190.318 96.447 190.317V190.317Z" fill="var(--fill-0, #001B43)"/>
<path id="Vector_32" d="M230.796 171.342H215.436V197.874H230.796C233.058 197.871 235.227 196.97 236.827 195.37C238.426 193.77 239.326 191.601 239.328 189.339V179.874C239.326 177.612 238.426 175.443 236.826 173.844C235.227 172.244 233.058 171.344 230.796 171.342V171.342ZM228.396 190.317C227.24 190.319 226.109 189.979 225.147 189.338C224.184 188.698 223.433 187.786 222.989 186.719C222.545 185.652 222.427 184.477 222.65 183.342C222.874 182.208 223.429 181.166 224.245 180.347C225.062 179.528 226.102 178.97 227.236 178.743C228.369 178.516 229.545 178.63 230.613 179.071C231.682 179.512 232.596 180.26 233.239 181.221C233.883 182.181 234.227 183.311 234.228 184.467V184.467C234.228 186.015 233.614 187.499 232.52 188.594C231.427 189.689 229.944 190.306 228.396 190.308V190.317Z" fill="var(--fill-0, #001B43)"/>
<path id="Vector_33" d="M151.23 201.966C151.165 201.967 151.102 201.953 151.043 201.926C150.985 201.898 150.934 201.857 150.894 201.807L137.361 185.823C137.29 185.733 137.256 185.618 137.268 185.504C137.279 185.39 137.334 185.284 137.421 185.21C137.509 185.135 137.621 185.097 137.736 185.104C137.851 185.111 137.958 185.162 138.036 185.247L151.569 201.228C151.644 201.319 151.68 201.437 151.67 201.555C151.66 201.673 151.604 201.783 151.515 201.861C151.435 201.928 151.334 201.965 151.23 201.966V201.966Z" fill="var(--fill-0, #1A7F7D)"/>
<path id="Vector_34" d="M155.349 172.158C155.268 172.161 155.188 172.14 155.118 172.098C155.022 172.035 154.954 171.939 154.926 171.827C154.898 171.716 154.913 171.599 154.968 171.498L168.393 149.658C168.422 149.608 168.461 149.564 168.506 149.529C168.552 149.494 168.605 149.469 168.661 149.454C168.716 149.44 168.775 149.437 168.832 149.445C168.889 149.453 168.944 149.472 168.993 149.502V149.502C169.093 149.565 169.165 149.664 169.194 149.779C169.223 149.893 169.205 150.015 169.146 150.117L155.721 171.957C155.681 172.019 155.626 172.07 155.561 172.105C155.496 172.141 155.423 172.159 155.349 172.158V172.158Z" fill="var(--fill-0, #1A7F7D)"/>
<path id="Vector_35" d="M176.421 149.472C177.582 149.472 178.524 148.531 178.524 147.369C178.524 146.208 177.582 145.266 176.421 145.266C175.259 145.266 174.318 146.208 174.318 147.369C174.318 148.531 175.259 149.472 176.421 149.472Z" fill="var(--fill-0, #FFEAC0)"/>
<path id="Vector_36" d="M171.075 141.543C172.236 141.543 173.178 140.601 173.178 139.44C173.178 138.279 172.236 137.337 171.075 137.337C169.914 137.337 168.972 138.279 168.972 139.44C168.972 140.601 169.914 141.543 171.075 141.543Z" fill="var(--fill-0, #FFEAC0)"/>
<path id="Vector_37" d="M177.681 130.053C178.842 130.053 179.784 129.111 179.784 127.95C179.784 126.788 178.842 125.847 177.681 125.847C176.519 125.847 175.578 126.788 175.578 127.95C175.578 129.111 176.519 130.053 177.681 130.053Z" fill="var(--fill-0, #FFEAC0)"/>
<path id="Vector_38" d="M140.043 256.704C141.183 256.657 142.299 256.358 143.311 255.828C144.322 255.299 145.203 254.552 145.892 253.641C146.58 252.731 147.058 251.679 147.292 250.561C147.525 249.444 147.509 248.289 147.243 247.179C147.189 246.948 147.12 246.726 147.048 246.504C146.922 246.145 146.77 245.795 146.595 245.457L146.427 245.118L141.012 234.465C140.843 234.133 140.55 233.881 140.197 233.764C139.843 233.648 139.457 233.677 139.125 233.844C138.857 233.979 138.641 234.197 138.507 234.465C137.778 235.911 137.148 237.126 136.641 238.086C135.63 240.03 134.865 241.434 133.818 243.627C133.302 244.71 132.876 245.661 132.549 246.423C132.2 247.218 132.018 248.077 132.015 248.946C132.01 249.961 132.205 250.967 132.589 251.907C132.973 252.847 133.538 253.702 134.253 254.423C134.968 255.144 135.817 255.717 136.754 256.109C137.69 256.502 138.695 256.706 139.71 256.71C139.821 256.713 139.932 256.71 140.043 256.704Z" fill="var(--fill-0, #FFC043)"/>
<path id="Vector_39" d="M139.749 254.958C142.682 254.958 145.059 252.581 145.059 249.648C145.059 246.715 142.682 244.338 139.749 244.338C136.816 244.338 134.439 246.715 134.439 249.648C134.439 252.581 136.816 254.958 139.749 254.958Z" fill="var(--fill-0, #EE4D75)"/>
<path id="Vector_40" d="M155.04 256.704C156.181 256.656 157.297 256.356 158.308 255.827C159.32 255.297 160.202 254.551 160.892 253.641C161.581 252.731 162.061 251.68 162.297 250.563C162.534 249.446 162.52 248.29 162.258 247.179C162.195 246.948 162.135 246.726 162.054 246.504C161.935 246.142 161.784 245.791 161.601 245.457L161.433 245.118L156.015 234.465C155.899 234.232 155.721 234.037 155.5 233.9C155.279 233.763 155.024 233.691 154.764 233.691C154.504 233.691 154.249 233.763 154.028 233.9C153.807 234.037 153.629 234.232 153.513 234.465C152.784 235.911 152.154 237.126 151.656 238.086C150.636 240.03 149.88 241.434 148.833 243.627C148.317 244.71 147.882 245.661 147.555 246.423C147.209 247.219 147.031 248.078 147.03 248.946C147.025 249.96 147.22 250.966 147.603 251.905C147.987 252.844 148.551 253.699 149.265 254.42C149.979 255.141 150.827 255.714 151.763 256.107C152.698 256.5 153.702 256.705 154.716 256.71C154.824 256.71 154.932 256.71 155.04 256.704Z" fill="var(--fill-0, #FFC043)"/>
<path id="Vector_41" d="M154.746 254.958C157.679 254.958 160.056 252.581 160.056 249.648C160.056 246.715 157.679 244.338 154.746 244.338C151.813 244.338 149.436 246.715 149.436 249.648C149.436 252.581 151.813 254.958 154.746 254.958Z" fill="var(--fill-0, #EE4D75)"/>
<path id="Vector_42" d="M170.046 256.704C171.186 256.657 172.302 256.358 173.313 255.828C174.325 255.299 175.206 254.552 175.895 253.641C176.583 252.731 177.061 251.679 177.295 250.562C177.528 249.444 177.512 248.289 177.246 247.179C177.192 246.948 177.123 246.726 177.051 246.504C176.923 246.145 176.772 245.795 176.598 245.457L176.43 245.118L171.012 234.465C170.896 234.232 170.717 234.037 170.496 233.9C170.275 233.763 170.021 233.691 169.761 233.691C169.501 233.691 169.246 233.763 169.025 233.9C168.804 234.037 168.626 234.232 168.51 234.465C167.781 235.911 167.151 237.126 166.644 238.086C165.633 240.03 164.868 241.434 163.821 243.627C163.305 244.71 162.879 245.661 162.552 246.423C162.208 247.22 162.026 248.078 162.018 248.946C162.012 249.961 162.207 250.967 162.591 251.907C162.974 252.847 163.539 253.702 164.254 254.423C164.968 255.144 165.818 255.717 166.754 256.109C167.69 256.502 168.695 256.706 169.71 256.71C169.821 256.713 169.935 256.71 170.046 256.704Z" fill="var(--fill-0, #FFC043)"/>
<path id="Vector_43" d="M169.752 254.958C172.685 254.958 175.062 252.581 175.062 249.648C175.062 246.715 172.685 244.338 169.752 244.338C166.819 244.338 164.442 246.715 164.442 249.648C164.442 252.581 166.819 254.958 169.752 254.958Z" fill="var(--fill-0, #EE4D75)"/>
<path id="Vector_44" d="M185.043 256.704C186.774 256.631 188.431 255.981 189.749 254.856C191.067 253.732 191.971 252.198 192.315 250.5C192.531 249.409 192.513 248.284 192.261 247.2C192.198 246.969 192.135 246.747 192.066 246.525C191.939 246.165 191.785 245.815 191.604 245.478L191.436 245.139L186.036 234.486C185.919 234.255 185.74 234.06 185.519 233.924C185.297 233.788 185.043 233.716 184.784 233.716C184.524 233.716 184.27 233.788 184.048 233.924C183.827 234.06 183.648 234.255 183.531 234.486C182.796 235.932 182.166 237.147 181.668 238.107C180.648 240.051 179.892 241.455 178.845 243.648C178.329 244.731 177.903 245.682 177.567 246.444C177.22 247.24 177.041 248.099 177.042 248.967C177.036 249.981 177.231 250.987 177.614 251.926C177.997 252.865 178.562 253.72 179.275 254.441C179.989 255.162 180.837 255.735 181.772 256.128C182.707 256.521 183.711 256.726 184.725 256.731C184.824 256.71 184.935 256.71 185.043 256.704Z" fill="var(--fill-0, #FFC043)"/>
<path id="Vector_45" d="M184.749 254.958C187.682 254.958 190.059 252.581 190.059 249.648C190.059 246.715 187.682 244.338 184.749 244.338C181.816 244.338 179.439 246.715 179.439 249.648C179.439 252.581 181.816 254.958 184.749 254.958Z" fill="var(--fill-0, #EE4D75)"/>
<path id="Vector_46" d="M79.5419 218.205L94.7159 227.652C95.208 227.959 95.5937 228.41 95.8207 228.944C96.0477 229.478 96.105 230.069 95.9849 230.637C95.9076 231.001 95.7593 231.346 95.5485 231.652C95.3378 231.959 95.0687 232.221 94.7567 232.423C94.4447 232.626 94.0958 232.765 93.7301 232.833C93.3643 232.9 92.9887 232.895 92.6249 232.818H92.5919L65.6999 226.755C64.5709 226.514 63.5803 225.842 62.9384 224.883C62.2965 223.923 62.0538 222.751 62.2619 221.616L63.3719 215.169L79.5419 218.205Z" fill="var(--fill-0, #0C4525)"/>
<path id="Vector_47" d="M76.7749 136.579L62.1248 214.937L83.1504 218.868L97.8006 140.51L76.7749 136.579Z" fill="var(--fill-0, #115655)"/>
<path id="Vector_48" d="M53.5591 174.939L76.0411 178.932C76.1851 178.668 76.5691 178.032 77.0101 177.114C79.4761 172.263 80.2891 168.303 82.9471 156.813C83.5471 154.203 83.4061 154.851 83.6131 153.954C85.3201 146.43 86.4991 140.385 87.2521 136.284L64.4041 131.7L53.5591 174.939Z" fill="var(--fill-0, #115655)"/>
<path id="Vector_49" d="M86.1753 227.1C86.0787 227.101 85.9846 227.07 85.9083 227.01C85.816 226.938 85.7551 226.834 85.7383 226.718C85.7216 226.602 85.7502 226.484 85.8183 226.389L87.6483 223.965C87.7201 223.873 87.8252 223.812 87.9411 223.796C88.0571 223.78 88.1748 223.809 88.2693 223.878C88.3615 223.952 88.4222 224.058 88.4389 224.176C88.4556 224.293 88.4271 224.412 88.3593 224.508L86.5293 226.923C86.4878 226.978 86.4343 227.022 86.3729 227.053C86.3115 227.084 86.2439 227.1 86.1753 227.1V227.1Z" fill="var(--fill-0, #FFEAC0)"/>
<path id="Vector_50" d="M82.5604 224.616C82.4641 224.618 82.37 224.587 82.2934 224.529C82.1994 224.457 82.1375 224.352 82.1212 224.235C82.1049 224.118 82.1355 223.999 82.2064 223.905L83.9824 221.49C84.0555 221.403 84.1593 221.347 84.2723 221.334C84.3853 221.321 84.499 221.352 84.5898 221.421C84.6807 221.489 84.7417 221.59 84.7604 221.702C84.7791 221.815 84.7541 221.93 84.6904 222.024L82.9144 224.448C82.8724 224.501 82.8186 224.545 82.7572 224.574C82.6957 224.603 82.6283 224.617 82.5604 224.616V224.616Z" fill="var(--fill-0, #FFEAC0)"/>
<path id="Vector_51" d="M95.133 231.819H95.052L63.087 223.827C62.9769 223.802 62.8809 223.735 62.8202 223.64C62.7595 223.545 62.7389 223.43 62.763 223.32C62.7616 223.311 62.7616 223.302 62.763 223.293C62.7921 223.178 62.865 223.08 62.9661 223.019C63.0671 222.958 63.1881 222.939 63.303 222.966L95.268 230.955C95.3228 230.967 95.3748 230.989 95.4209 231.021C95.467 231.053 95.5064 231.093 95.5367 231.14C95.5671 231.188 95.5879 231.24 95.5979 231.295C95.6079 231.35 95.6069 231.407 95.595 231.462C95.595 231.462 95.595 231.48 95.595 231.489C95.5682 231.589 95.5074 231.676 95.4232 231.737C95.3389 231.797 95.2363 231.826 95.133 231.819V231.819Z" fill="var(--fill-0, #FFEAC0)"/>
<path id="Vector_52" d="M107.163 122.667V126.522L102.867 127.641L101.196 142.113L60.8999 137.4L63.2189 119.793C63.2189 119.793 54.2189 109.086 66.7079 98.3337C74.2342 92.8421 83.4974 90.2678 92.7779 91.0887L115.458 107.931C114.364 109.595 113.271 111.261 112.179 112.929L106.245 114.501L107.163 122.667Z" fill="var(--fill-0, #001433)"/>
<path id="Vector_53" d="M79.2509 57.5433L79.9649 57.0153C80.4831 56.6315 81.0718 56.3537 81.6974 56.1975C82.323 56.0414 82.9733 56.0101 83.611 56.1054C84.2487 56.2007 84.8614 56.4207 85.4141 56.7528C85.9667 57.085 86.4485 57.5228 86.8319 58.0413L94.1219 67.8903L85.5569 74.2293L78.2729 64.3863C77.5004 63.3473 77.1697 62.0451 77.3529 60.7634C77.536 59.4817 78.2183 58.3243 79.2509 57.5433Z" fill="var(--fill-0, #0C4525)"/>
<path id="Vector_54" d="M71.7242 66.6417L72.1772 65.8797C72.841 64.7605 73.9221 63.9507 75.1828 63.6283C76.4435 63.306 77.7806 63.4975 78.9002 64.1607L89.4362 70.4097L84.0002 79.5717L73.4702 73.3287C72.3568 72.669 71.5488 71.5965 71.2218 70.3443C70.8949 69.0922 71.0754 67.7615 71.7242 66.6417V66.6417Z" fill="var(--fill-0, #0C4525)"/>
<path id="Vector_55" d="M68.2708 78.8673L68.2378 77.9673C68.2121 77.3224 68.3138 76.6788 68.5372 76.0733C68.7605 75.4678 69.1011 74.9123 69.5395 74.4385C69.9778 73.9648 70.5052 73.5822 71.0916 73.3126C71.678 73.043 72.3118 72.8917 72.9568 72.8673L85.1998 72.4233L85.6018 83.0703L73.3678 83.5353C72.0743 83.5867 70.8129 83.1249 69.8583 82.2506C68.9036 81.3764 68.3331 80.1603 68.2708 78.8673V78.8673Z" fill="var(--fill-0, #0C4525)"/>
<path id="Vector_56" d="M103.044 68.6313C100.792 66.724 97.9151 65.7159 94.9654 65.8006C92.0157 65.8853 89.2013 67.0569 87.0628 69.0903L86.9638 69.1893C83.8798 72.2602 81.8261 76.2134 81.0868 80.5023C80.7863 83.3082 81.393 86.1365 82.8178 88.5723C84.957 92.5336 88.3655 95.661 92.4958 97.4523C102.537 101.892 128.055 113.523 166.344 132.453C167.137 132.886 168.047 133.055 168.943 132.935C169.838 132.815 170.672 132.413 171.324 131.787C172.797 130.188 172.575 127.152 170.328 125.487L103.044 68.6313Z" fill="var(--fill-0, #FFA1A1)"/>
<path id="Vector_57" d="M111.159 92.3733C110.995 92.3705 110.836 92.3232 110.697 92.2364C110.558 92.1496 110.446 92.0266 110.372 91.8807C110.298 91.7347 110.265 91.5713 110.277 91.4081C110.288 91.2449 110.345 91.088 110.439 90.9543V90.9543L117.054 82.0143C117.195 81.8271 117.405 81.7025 117.637 81.6672C117.869 81.6319 118.105 81.6886 118.296 81.8253V81.8253C118.483 81.9672 118.607 82.1765 118.641 82.4085C118.676 82.6405 118.619 82.8769 118.482 83.0673V83.0673L111.867 92.0073C111.785 92.1186 111.678 92.2095 111.556 92.2729C111.433 92.3364 111.297 92.3707 111.159 92.3733V92.3733Z" fill="var(--fill-0, #EE4D75)"/>
<path id="Vector_58" d="M121.245 100.815C121.128 100.814 121.012 100.791 120.904 100.745C120.796 100.699 120.698 100.633 120.616 100.549C120.535 100.465 120.47 100.366 120.427 100.257C120.384 100.148 120.363 100.032 120.366 99.9148C120.366 99.7289 120.426 99.548 120.537 99.3988L127.137 90.4558C127.197 90.3404 127.281 90.2395 127.384 90.16C127.487 90.0804 127.606 90.0242 127.733 89.995C127.86 89.9659 127.991 89.9646 128.119 89.9912C128.246 90.0178 128.366 90.0718 128.471 90.1493C128.575 90.2268 128.662 90.326 128.724 90.4401C128.787 90.5542 128.824 90.6806 128.832 90.8104C128.841 90.9402 128.822 91.0703 128.776 91.192C128.73 91.3136 128.658 91.4237 128.565 91.5148L121.965 100.455C121.881 100.567 121.772 100.657 121.647 100.72C121.522 100.782 121.384 100.815 121.245 100.815V100.815Z" fill="var(--fill-0, #EE4D75)"/>
<path id="Vector_59" d="M133.935 110.955C133.745 110.955 133.561 110.892 133.41 110.778C133.223 110.636 133.099 110.427 133.065 110.195C133.03 109.963 133.087 109.726 133.224 109.536V109.536L139.824 100.593C139.951 100.423 140.135 100.303 140.343 100.255C140.55 100.207 140.768 100.235 140.957 100.332C141.146 100.429 141.295 100.591 141.376 100.787C141.458 100.984 141.467 101.203 141.402 101.406C141.356 101.498 141.294 101.582 141.219 101.652L134.646 110.592C134.565 110.704 134.458 110.796 134.334 110.859C134.211 110.922 134.074 110.955 133.935 110.955V110.955Z" fill="var(--fill-0, #EE4D75)"/>
<path id="Vector_60" d="M106.23 114.507L110.217 113.433C113.669 112.511 117.176 111.809 120.717 111.333V111.333C121.053 111.274 121.399 111.295 121.726 111.395C122.053 111.496 122.352 111.671 122.598 111.909C122.737 112.05 122.855 112.212 122.946 112.389C123.057 112.615 123.132 112.858 123.168 113.109C123.192 113.551 123.079 113.991 122.843 114.367C122.608 114.743 122.263 115.037 121.854 115.209L117.759 117.126C117.932 117.237 118.082 117.381 118.2 117.551C118.317 117.72 118.4 117.911 118.443 118.113C118.481 118.468 118.402 118.826 118.218 119.132C118.033 119.438 117.754 119.675 117.423 119.808C116.1 120.252 114.723 120.708 113.277 121.095C111.162 121.71 109.119 122.223 107.175 122.658L106.23 114.507Z" fill="var(--fill-0, #FFDDCF)"/>
<path id="Vector_61" d="M84.6541 95.7987H77.7001C76.4271 95.7987 75.2062 95.2929 74.306 94.3928C73.4059 93.4926 72.9001 92.2717 72.9001 90.9987V82.2327H87.7801V92.6997C87.7805 93.1067 87.7006 93.5099 87.545 93.8861C87.3894 94.2622 87.1612 94.604 86.8733 94.8919C86.5855 95.1797 86.2437 95.408 85.8675 95.5636C85.4914 95.7192 85.0882 95.7991 84.6811 95.7987H84.6541Z" fill="var(--fill-0, #FFDDCF)"/>
<path id="Vector_62" d="M87.7798 82.2242H72.8818V81.5312C72.8818 80.8246 73.1625 80.1471 73.6621 79.6475C74.1617 79.1479 74.8393 78.8672 75.5458 78.8672H85.1158C85.8224 78.8672 86.5 79.1479 86.9996 79.6475C87.4992 80.1471 87.7798 80.8246 87.7798 81.5312V82.2242Z" fill="var(--fill-0, #001433)"/>
<path id="Vector_63" d="M72.8547 88.0742L74.4987 87.9962V86.3072C74.4987 85.4372 74.3367 83.9912 75.1737 83.4482C75.5713 83.229 76.0333 83.1567 76.4787 83.2442C78.1017 83.4212 79.7007 83.8442 81.3267 84.0092C82.8059 84.1384 84.295 83.9227 85.6767 83.3792C86.4115 83.0862 87.106 82.7011 87.7437 82.2332C85.2953 81.9897 82.8362 81.8706 80.3757 81.8762C77.7117 81.8762 75.1737 82.0112 72.8757 82.2242L72.8547 88.0742Z" fill="var(--fill-0, #001433)"/>
<path id="Vector_64" d="M102.723 115.332C93.9045 115.331 85.1502 113.834 76.8328 110.904C76.643 110.803 76.4956 110.638 76.4171 110.438C76.3387 110.238 76.3344 110.016 76.405 109.813C76.4757 109.61 76.6167 109.439 76.8024 109.331C76.9882 109.223 77.2065 109.185 77.4178 109.224C80.9411 110.467 84.5508 111.45 88.2178 112.164C93.7977 113.238 99.4793 113.691 105.159 113.514C105.288 113.493 105.42 113.5 105.545 113.535C105.671 113.57 105.788 113.631 105.888 113.716C105.987 113.8 106.067 113.905 106.122 114.024C106.177 114.142 106.205 114.272 106.205 114.402C106.205 114.533 106.177 114.662 106.122 114.78C106.067 114.899 105.987 115.004 105.888 115.088C105.788 115.173 105.671 115.235 105.545 115.269C105.42 115.304 105.288 115.311 105.159 115.29C104.4 115.317 103.56 115.332 102.723 115.332Z" fill="var(--fill-0, #1A7F7D)"/>
<path id="Vector_65" d="M90.2999 129.975C87.7644 129.976 85.2334 129.762 82.7339 129.336C75.4335 128.072 68.5499 125.053 62.6759 120.537C62.5286 120.381 62.4421 120.177 62.4319 119.963C62.4218 119.748 62.4886 119.537 62.6205 119.367C62.7523 119.198 62.9405 119.081 63.1509 119.038C63.3613 118.995 63.5801 119.029 63.7679 119.133C69.0496 123.224 75.2047 126.04 81.7535 127.362C88.3023 128.684 95.0678 128.475 101.523 126.753C101.64 126.695 101.768 126.663 101.899 126.659C102.029 126.656 102.159 126.681 102.279 126.732C102.399 126.784 102.507 126.861 102.594 126.958C102.681 127.056 102.746 127.171 102.784 127.296C102.823 127.421 102.833 127.553 102.815 127.682C102.797 127.812 102.752 127.936 102.681 128.046C102.61 128.156 102.516 128.249 102.406 128.319C102.296 128.389 102.171 128.434 102.042 128.451L101.985 128.466C98.1718 129.474 94.2438 129.981 90.2999 129.975V129.975Z" fill="var(--fill-0, #1A7F7D)"/>
<path id="Vector_66" d="M113.769 118.539C113.668 118.538 113.571 118.503 113.492 118.441C113.413 118.378 113.358 118.291 113.334 118.194C113.308 118.079 113.328 117.959 113.389 117.859C113.451 117.759 113.55 117.687 113.664 117.66L117.642 116.7C117.761 116.671 117.887 116.692 117.991 116.756C118.096 116.821 118.17 116.924 118.198 117.043C118.227 117.163 118.206 117.288 118.142 117.393C118.077 117.497 117.974 117.571 117.855 117.6L113.877 118.551L113.769 118.539Z" fill="var(--fill-0, #EE4D75)"/>
<path id="Vector_67" d="M84.816 93.4383C84.1279 93.4292 83.4658 93.1738 82.95 92.7183C82.8616 92.6388 82.8086 92.5274 82.8024 92.4087C82.7962 92.29 82.8374 92.1737 82.917 92.0854C82.9965 91.997 83.1079 91.9439 83.2266 91.9378C83.3453 91.9316 83.4616 91.9728 83.55 92.0523C83.8955 92.3679 84.3465 92.5429 84.8145 92.5429C85.2824 92.5429 85.7334 92.3679 86.079 92.0523C86.1625 91.9688 86.2758 91.9219 86.394 91.9219C86.5121 91.9219 86.6254 91.9688 86.709 92.0523C86.7925 92.1359 86.8394 92.2492 86.8394 92.3674C86.8394 92.4855 86.7925 92.5988 86.709 92.6823C86.2204 93.123 85.5907 93.3751 84.933 93.3933L84.816 93.4383Z" fill="var(--fill-0, #EE4D75)"/>
<path id="Vector_68" d="M75.2428 90.9873H73.1998C72.9163 90.9877 72.6355 90.9322 72.3734 90.824C72.1114 90.7158 71.8732 90.557 71.6726 90.3566C71.472 90.1563 71.3129 89.9184 71.2043 89.6565C71.0957 89.3946 71.0398 89.1138 71.0398 88.8303V88.8303V88.4583C71.0398 87.8855 71.2674 87.3361 71.6724 86.931C72.0775 86.5259 72.6269 86.2983 73.1998 86.2983H75.2578V90.9873H75.2428Z" fill="var(--fill-0, #FFDDCF)"/>
<path id="Vector_69" d="M30.3689 204.408L31.1759 222.264C31.1994 222.85 31.0414 223.429 30.7235 223.921C30.4056 224.413 29.9433 224.796 29.3999 225.015V225.015C29.055 225.158 28.6854 225.231 28.3123 225.23C27.9392 225.229 27.5699 225.155 27.2255 225.012C26.8811 224.868 26.5684 224.658 26.3052 224.394C26.0421 224.129 25.8336 223.815 25.6919 223.47V223.446L15.4619 197.838C15.037 196.769 15.0375 195.579 15.4632 194.51C15.8888 193.442 16.7075 192.577 17.7509 192.093L23.6999 189.366L30.3689 204.408Z" fill="var(--fill-0, #0C4525)"/>
<path id="Vector_70" d="M59.4167 166.834L21.0535 188.983L31.7485 207.507L70.1117 185.358L59.4167 166.834Z" fill="var(--fill-0, #115655)"/>
<path id="Vector_71" d="M27.3333 213.9C27.2249 213.899 27.1205 213.859 27.039 213.788C26.9575 213.716 26.9044 213.618 26.8893 213.51C26.8801 213.449 26.8836 213.387 26.8996 213.328C26.9157 213.268 26.9439 213.213 26.9826 213.165C27.0212 213.117 27.0694 213.077 27.1241 213.049C27.1789 213.021 27.2389 213.004 27.3003 213V213L30.3003 212.67C30.3594 212.664 30.4192 212.669 30.4763 212.686C30.5334 212.702 30.5867 212.73 30.633 212.767C30.6794 212.804 30.718 212.85 30.7466 212.902C30.7753 212.954 30.7933 213.012 30.7998 213.071C30.8063 213.13 30.8011 213.19 30.7845 213.247C30.7679 213.304 30.7402 213.357 30.703 213.403C30.6659 213.45 30.6199 213.488 30.5678 213.517C30.5157 213.546 30.4584 213.564 30.3993 213.57L27.3783 213.9H27.3333Z" fill="var(--fill-0, #FFEAC0)"/>
<path id="Vector_72" d="M27.1801 209.583C27.0711 209.584 26.9656 209.545 26.8838 209.473C26.8019 209.401 26.7493 209.301 26.7361 209.193C26.7289 209.136 26.733 209.079 26.7482 209.024C26.7633 208.969 26.7892 208.917 26.8243 208.872C26.8594 208.827 26.9031 208.789 26.9528 208.761C27.0025 208.732 27.0573 208.714 27.1141 208.707V208.707L30.1321 208.38C30.2481 208.37 30.3636 208.405 30.4547 208.477C30.5457 208.55 30.6053 208.655 30.6211 208.77C30.6321 208.887 30.5968 209.004 30.5227 209.095C30.4487 209.187 30.3419 209.246 30.2251 209.259V209.259L27.2251 209.586L27.1801 209.583Z" fill="var(--fill-0, #FFEAC0)"/>
<path id="Vector_73" d="M28.068 224.679C27.9794 224.681 27.8925 224.655 27.8194 224.605C27.7463 224.555 27.6906 224.483 27.66 224.4L16.401 193.8C16.3596 193.693 16.3622 193.573 16.4083 193.468C16.4543 193.362 16.5401 193.279 16.647 193.236V193.236C16.7019 193.216 16.7603 193.207 16.8187 193.21C16.8772 193.212 16.9345 193.226 16.9875 193.251C17.0405 193.276 17.088 193.311 17.1274 193.354C17.1668 193.397 17.1972 193.448 17.217 193.503L28.461 224.1C28.5024 224.207 28.4998 224.327 28.4537 224.432C28.4077 224.538 28.3219 224.621 28.215 224.664V224.664C28.167 224.676 28.1175 224.681 28.068 224.679Z" fill="var(--fill-0, #FFEAC0)"/>
<path id="Vector_74" d="M77.7002 177.9C76.3935 180.7 74.3869 183.116 71.8742 184.914C71.0343 185.5 70.1426 186.008 69.2102 186.432L54.0542 170.451C57.1369 167.336 59.3664 163.48 60.5282 159.255L77.7002 177.9Z" fill="var(--fill-0, #115655)"/>
<path id="Vector_75" d="M69.1167 186.819C68.9192 186.802 68.733 186.72 68.5869 186.586C68.4408 186.452 68.3431 186.273 68.3089 186.078C68.2747 185.883 68.3059 185.681 68.3978 185.506C68.4896 185.33 68.6369 185.19 68.8167 185.106C68.8617 185.106 73.6917 183.213 75.8577 178.764L75.9387 178.632C75.9387 178.632 78.3987 175.08 80.9547 164.877L84.7557 149.517C84.8319 149.317 84.9767 149.151 85.1642 149.049C85.3517 148.946 85.5696 148.913 85.7789 148.957C85.9882 149 86.1753 149.116 86.3066 149.285C86.438 149.454 86.505 149.664 86.4957 149.877L86.4777 149.943L82.6767 165.315C80.1837 175.275 77.8047 179.049 77.4207 179.61C74.9367 184.653 69.6627 186.711 69.4317 186.765C69.3308 186.802 69.2241 186.82 69.1167 186.819Z" fill="var(--fill-0, #001433)"/>
<path id="Vector_76" d="M244.434 214.842L229.26 224.28C228.765 224.589 228.377 225.042 228.148 225.579C227.92 226.116 227.862 226.71 227.982 227.28V227.28C228.061 227.646 228.212 227.993 228.425 228.3C228.639 228.607 228.911 228.87 229.226 229.072C229.54 229.274 229.892 229.413 230.26 229.479C230.629 229.545 231.006 229.538 231.372 229.458V229.458L258.3 223.401C259.429 223.159 260.419 222.487 261.06 221.527C261.701 220.567 261.943 219.395 261.735 218.259L260.61 211.8L244.434 214.842Z" fill="var(--fill-0, #FFC3D3)"/>
<path id="Vector_77" d="M247.217 133.2L226.191 137.131L240.841 215.49L261.867 211.559L247.217 133.2Z" fill="var(--fill-0, #115655)"/>
<path id="Vector_78" d="M269.004 170.889L248.643 175.8C248.502 175.542 248.13 174.9 247.692 174.024C245.268 169.275 244.392 165.348 241.539 153.975L240.831 151.143C239.001 143.694 237.705 137.7 236.871 133.632L257.532 128.1L269.004 170.889Z" fill="var(--fill-0, #115655)"/>
<path id="Vector_79" d="M216.81 119.301L216.432 123.162L221.136 124.23L222.795 138.711L263.1 134.058L260.748 116.451C260.748 116.451 269.778 105.726 257.268 95.0013C249.741 89.5115 240.478 86.9374 231.198 87.7563L209.133 104.751L211.8 109.572L217.731 111.144L216.81 119.301Z" fill="var(--fill-0, #1B9C99)"/>
<path id="Vector_80" d="M236.229 78.8579H251.493V87.4799C251.492 88.7938 250.969 90.0536 250.04 90.9824C249.111 91.9112 247.851 92.4329 246.537 92.4329H239.319C238.5 92.4314 237.716 92.1057 237.137 91.5272C236.558 90.9487 236.231 90.1645 236.229 89.346V78.8459V78.8579Z" fill="var(--fill-0, #FFDDCF)"/>
<path id="Vector_81" d="M249.804 84.72H251.865C252.43 84.7286 252.969 84.9584 253.366 85.3601C253.763 85.7617 253.987 86.3031 253.989 86.868V87.24C253.989 87.5235 253.933 87.8042 253.825 88.0661C253.716 88.328 253.557 88.5659 253.356 88.7663C253.156 88.9666 252.918 89.1254 252.656 89.2336C252.394 89.3419 252.113 89.3974 251.829 89.397H249.771V84.72H249.804Z" fill="var(--fill-0, #FFDDCF)"/>
<path id="Vector_82" d="M238.893 74.3042H248.847C249.553 74.3042 250.231 74.5849 250.731 75.0845C251.23 75.5841 251.511 76.2617 251.511 76.9682V78.8762H236.229V76.9592C236.232 76.2545 236.514 75.5796 237.013 75.0822C237.512 74.5847 238.188 74.305 238.893 74.3042V74.3042Z" fill="var(--fill-0, #00245A)"/>
<path id="Vector_83" d="M251.484 84.7197C251.484 84.7197 238.974 87.0177 236.22 78.8577H251.484V84.7197Z" fill="var(--fill-0, #00245A)"/>
<path id="Vector_84" d="M262.728 74.3061C267.832 70.3728 270.712 65.5534 269.162 63.5415C267.611 61.5297 262.217 63.0873 257.113 67.0205C252.009 70.9538 249.129 75.7733 250.679 77.7851C252.23 79.7969 257.624 78.2393 262.728 74.3061Z" fill="var(--fill-0, #00245A)"/>
<path id="Vector_85" d="M221.25 111.969H218.754C218.543 111.934 218.352 111.826 218.214 111.663C218.076 111.501 218 111.294 218 111.081C218 110.868 218.076 110.661 218.214 110.499C218.352 110.336 218.543 110.228 218.754 110.193C228.184 110.492 237.587 109.036 246.486 105.9C246.693 105.848 246.912 105.872 247.103 105.967C247.295 106.061 247.446 106.221 247.531 106.417C247.615 106.614 247.627 106.833 247.564 107.038C247.501 107.242 247.368 107.417 247.188 107.532L247.08 107.571C243.476 108.839 239.784 109.842 236.034 110.571C231.161 111.502 226.211 111.97 221.25 111.969Z" fill="var(--fill-0, #115655)"/>
<path id="Vector_86" d="M233.682 126.6C229.747 126.606 225.829 126.102 222.024 125.1C221.832 125.011 221.678 124.857 221.589 124.666C221.499 124.475 221.479 124.258 221.533 124.054C221.587 123.85 221.711 123.671 221.884 123.549C222.056 123.427 222.266 123.37 222.477 123.387C228.928 125.103 235.688 125.307 242.231 123.984C248.774 122.662 254.923 119.848 260.202 115.761C260.389 115.664 260.604 115.636 260.81 115.682C261.015 115.727 261.199 115.843 261.328 116.01C261.456 116.177 261.523 116.383 261.515 116.594C261.507 116.804 261.426 117.005 261.285 117.162C255.421 121.692 248.538 124.719 241.236 125.979C238.74 126.399 236.213 126.606 233.682 126.6Z" fill="var(--fill-0, #115655)"/>
<path id="Vector_87" d="M239.16 90.072H239.034C238.392 90.0445 237.779 89.793 237.303 89.361C237.22 89.2777 237.174 89.165 237.174 89.0475C237.174 88.9299 237.22 88.8172 237.303 88.734V88.734C237.388 88.6529 237.501 88.6077 237.618 88.6077C237.736 88.6077 237.848 88.6529 237.933 88.734C238.257 89.0311 238.676 89.2043 239.115 89.223C239.61 89.232 240.091 89.0579 240.465 88.734C240.55 88.6584 240.661 88.6183 240.774 88.6219C240.888 88.6255 240.996 88.6725 241.076 88.7533C241.156 88.834 241.202 88.9423 241.204 89.0559C241.207 89.1695 241.165 89.2798 241.089 89.364V89.364C240.559 89.8365 239.87 90.0897 239.16 90.072V90.072Z" fill="var(--fill-0, #EE4D75)"/>
<path id="Vector_88" d="M237.774 223.674C237.707 223.676 237.639 223.66 237.579 223.63C237.519 223.599 237.467 223.553 237.429 223.497L235.599 221.097C235.531 221.002 235.503 220.884 235.519 220.769C235.536 220.653 235.597 220.548 235.689 220.476C235.735 220.44 235.788 220.414 235.844 220.399C235.9 220.384 235.959 220.38 236.017 220.387C236.074 220.395 236.13 220.414 236.18 220.443C236.231 220.472 236.275 220.511 236.31 220.557L238.086 222.981C238.155 223.07 238.186 223.182 238.175 223.294C238.163 223.405 238.109 223.508 238.023 223.581C237.939 223.65 237.832 223.684 237.723 223.677L237.774 223.674Z" fill="var(--fill-0, #EE4D75)"/>
<path id="Vector_89" d="M241.416 221.259C241.347 221.259 241.279 221.243 241.217 221.212C241.155 221.182 241.101 221.137 241.059 221.082L239.238 218.658C239.156 218.573 239.11 218.46 239.112 218.342C239.113 218.224 239.161 218.112 239.246 218.029C239.33 217.947 239.443 217.901 239.561 217.903C239.679 217.904 239.792 217.952 239.874 218.037C239.899 218.064 239.921 218.094 239.94 218.127L241.77 220.527C241.84 220.624 241.869 220.745 241.85 220.864C241.832 220.982 241.767 221.089 241.671 221.16C241.599 221.219 241.509 221.254 241.416 221.259V221.259Z" fill="var(--fill-0, #EE4D75)"/>
<path id="Vector_90" d="M228.843 228.453C228.723 228.467 228.603 228.433 228.509 228.359C228.414 228.285 228.353 228.176 228.339 228.057C228.324 227.937 228.358 227.817 228.432 227.723C228.507 227.628 228.615 227.567 228.735 227.553L260.7 219.573C260.813 219.544 260.934 219.561 261.035 219.62C261.137 219.68 261.21 219.777 261.24 219.891V219.891C261.266 220.006 261.246 220.127 261.185 220.228C261.123 220.329 261.024 220.402 260.91 220.431L228.948 228.426L228.843 228.453Z" fill="var(--fill-0, #EE4D75)"/>
<path id="Vector_91" d="M187.5 97.569L182.4 100.23C180.993 100.961 179.867 102.136 179.196 103.572C178.525 105.008 178.347 106.626 178.689 108.174C178.787 108.103 178.894 108.045 179.007 108C179.192 107.928 179.39 107.893 179.589 107.897C179.788 107.901 179.984 107.944 180.166 108.024C180.349 108.104 180.513 108.219 180.651 108.363C180.789 108.506 180.897 108.676 180.969 108.861C181.041 109.046 181.076 109.244 181.072 109.443C181.068 109.642 181.025 109.838 180.945 110.02C180.865 110.202 180.75 110.367 180.606 110.505C180.463 110.643 180.293 110.751 180.108 110.823C179.997 110.865 179.881 110.894 179.763 110.91C179.802 110.991 179.838 111.072 179.877 111.15L180.024 111.45C180.142 111.355 180.273 111.28 180.414 111.225C180.788 111.079 181.205 111.088 181.573 111.249C181.941 111.411 182.23 111.712 182.376 112.086C182.522 112.46 182.513 112.877 182.352 113.245C182.19 113.613 181.889 113.902 181.515 114.048L181.446 114.069C181.497 114.156 181.548 114.24 181.602 114.324L181.68 114.441C181.817 114.313 181.977 114.211 182.151 114.141C182.494 113.97 182.889 113.938 183.255 114.049C183.622 114.16 183.932 114.408 184.121 114.74C184.311 115.073 184.367 115.466 184.277 115.838C184.186 116.21 183.957 116.533 183.636 116.742C184.402 117.36 185.288 117.813 186.237 118.073C187.186 118.334 188.179 118.396 189.153 118.257C189.959 118.137 190.74 117.884 191.463 117.507L196.548 114.843L187.5 97.569Z" fill="var(--fill-0, #001B43)"/>
<path id="Vector_92" d="M180.975 108.861C180.903 108.676 180.794 108.507 180.657 108.363C180.519 108.219 180.354 108.104 180.172 108.024C179.99 107.944 179.794 107.901 179.595 107.897C179.396 107.893 179.198 107.928 179.013 108C178.9 108.045 178.793 108.103 178.695 108.174C178.817 108.736 179.004 109.281 179.25 109.8C179.421 110.166 179.595 110.535 179.769 110.901C179.887 110.885 180.002 110.856 180.114 110.814C180.486 110.668 180.785 110.381 180.947 110.015C181.108 109.649 181.118 109.235 180.975 108.861V108.861Z" fill="var(--fill-0, #1A7F7D)"/>
<path id="Vector_93" d="M182.379 112.08C182.308 111.894 182.201 111.723 182.064 111.579C181.927 111.435 181.762 111.319 181.58 111.239C181.398 111.159 181.201 111.116 181.002 111.112C180.803 111.109 180.605 111.145 180.42 111.219C180.279 111.274 180.148 111.349 180.03 111.444L180.078 111.543L181.161 113.559C181.251 113.73 181.35 113.898 181.461 114.063L181.53 114.042C181.716 113.97 181.885 113.862 182.028 113.724C182.172 113.586 182.286 113.421 182.365 113.239C182.444 113.056 182.486 112.86 182.489 112.661C182.491 112.462 182.454 112.264 182.379 112.08V112.08Z" fill="var(--fill-0, #1A7F7D)"/>
<path id="Vector_94" d="M184.116 115.002C184.045 114.816 183.938 114.646 183.801 114.502C183.663 114.358 183.499 114.242 183.316 114.163C183.134 114.083 182.938 114.04 182.738 114.037C182.539 114.034 182.342 114.07 182.157 114.144C181.983 114.214 181.823 114.316 181.686 114.444L182.061 115.014C182.493 115.674 183.027 116.261 183.642 116.754C183.899 116.552 184.084 116.272 184.17 115.957C184.255 115.641 184.236 115.306 184.116 115.002V115.002Z" fill="var(--fill-0, #1A7F7D)"/>
<path id="Vector_95" d="M215.871 76.7998L200.979 87.7498C200.762 88.6861 200.796 89.6629 201.078 90.5818C201.489 91.8542 202.364 92.9252 203.529 93.5818C204.133 93.918 204.79 94.1464 205.473 94.2568C205.104 95.0889 204.934 95.9951 204.976 96.904C205.018 97.813 205.27 98.6999 205.713 99.4948C206.171 100.183 206.767 100.768 207.464 101.214C208.161 101.659 208.943 101.954 209.76 102.081C209.361 102.913 209.149 103.822 209.139 104.745C209.121 105.954 209.516 107.134 210.258 108.09C210.679 108.628 211.203 109.077 211.8 109.41L229.668 102.9C231.51 102.226 233.01 100.849 233.837 99.07C234.664 97.2911 234.751 95.2565 234.078 93.4138C233.964 93.1059 233.832 92.8053 233.682 92.5138L226.782 79.3648C226.333 78.5031 225.72 77.7381 224.976 77.1136C224.232 76.4891 223.372 76.0172 222.446 75.725C221.52 75.4327 220.545 75.3258 219.577 75.4104C218.61 75.495 217.668 75.7693 216.807 76.2178C216.481 76.3885 216.168 76.583 215.871 76.7998V76.7998Z" fill="var(--fill-0, #FFAFC4)"/>
<path id="Vector_96" d="M209.139 104.751C209.15 103.828 209.362 102.919 209.76 102.087C208.943 101.96 208.161 101.665 207.465 101.22C206.768 100.774 206.172 100.189 205.713 99.5009C205.271 98.7059 205.018 97.8191 204.977 96.9101C204.935 96.0012 205.105 95.0949 205.473 94.2629C204.791 94.1525 204.133 93.9241 203.529 93.5879C202.364 92.9313 201.489 91.8603 201.078 90.5879C200.797 89.669 200.763 88.6921 200.979 87.7559L187.518 97.6559L196.575 114.933L211.8 109.368C211.206 109.051 210.678 108.622 210.246 108.105C209.506 107.146 209.116 105.962 209.139 104.751V104.751Z" fill="var(--fill-0, #001B43)"/>
<path id="Vector_97" d="M210.204 102.777C210.01 102.769 209.823 102.698 209.672 102.575C209.521 102.452 209.414 102.284 209.367 102.095C209.32 101.906 209.335 101.706 209.411 101.527C209.487 101.348 209.619 101.198 209.787 101.1L219.129 96.2067C219.33 96.1345 219.55 96.1363 219.75 96.2116C219.95 96.2869 220.117 96.4308 220.22 96.6176C220.324 96.8045 220.358 97.0221 220.315 97.2315C220.273 97.4409 220.158 97.6285 219.99 97.7607L219.954 97.7787L210.6 102.672C210.479 102.74 210.343 102.776 210.204 102.777V102.777Z" fill="var(--fill-0, #EE4D75)"/>
<path id="Vector_98" d="M206.04 94.7998C205.847 94.7901 205.662 94.7186 205.513 94.596C205.364 94.4734 205.259 94.3061 205.212 94.1189C205.165 93.9316 205.18 93.7343 205.254 93.556C205.328 93.3777 205.457 93.228 205.623 93.1288L214.965 88.2298C215.067 88.1477 215.186 88.0888 215.313 88.0574C215.44 88.026 215.573 88.0228 215.702 88.048C215.83 88.0732 215.952 88.1263 216.058 88.2034C216.164 88.2805 216.252 88.3798 216.315 88.4944C216.379 88.6091 216.417 88.7362 216.426 88.867C216.436 88.9977 216.416 89.129 216.37 89.2515C216.323 89.374 216.25 89.4849 216.156 89.5763C216.062 89.6677 215.949 89.7375 215.826 89.7808L215.79 89.7988L206.448 94.7008C206.322 94.7665 206.182 94.8005 206.04 94.7998Z" fill="var(--fill-0, #EE4D75)"/>
<path id="Vector_99" d="M196.2 115.05C196.038 115.049 195.878 115.003 195.739 114.919C195.6 114.834 195.487 114.714 195.411 114.57L187.116 98.7659C187.042 98.5646 187.043 98.3435 187.118 98.1426C187.193 97.9416 187.337 97.774 187.524 97.6698C187.711 97.5656 187.93 97.5318 188.14 97.5743C188.35 97.6168 188.538 97.733 188.67 97.9019L188.688 97.9379L196.98 113.754C197.087 113.963 197.108 114.205 197.038 114.43C196.969 114.654 196.814 114.842 196.608 114.954C196.481 115.015 196.342 115.048 196.2 115.05V115.05Z" fill="var(--fill-0, #1A7F7D)"/>
<path id="Vector_100" d="M193.254 116.613C193.093 116.61 192.936 116.564 192.798 116.479C192.661 116.395 192.549 116.275 192.474 116.133L184.182 100.329C184.116 100.127 184.124 99.9084 184.203 99.7116C184.283 99.5148 184.43 99.3525 184.617 99.2534C184.805 99.1544 185.022 99.1248 185.229 99.1701C185.437 99.2154 185.622 99.3325 185.751 99.5008L194.046 115.308C194.153 115.516 194.175 115.758 194.106 115.982C194.038 116.206 193.885 116.395 193.68 116.508C193.549 116.577 193.402 116.613 193.254 116.613V116.613Z" fill="var(--fill-0, #1A7F7D)"/>
<path id="Vector_101" d="M217.743 111.144L213.756 110.076C210.309 109.149 206.807 108.441 203.271 107.955V107.955C202.934 107.899 202.588 107.922 202.261 108.022C201.934 108.122 201.635 108.296 201.387 108.531C201.248 108.673 201.132 108.835 201.042 109.011C200.925 109.236 200.85 109.48 200.82 109.731C200.791 110.176 200.901 110.62 201.135 111C201.369 111.379 201.715 111.677 202.125 111.852L206.226 113.772C206.053 113.883 205.903 114.027 205.786 114.196C205.669 114.365 205.586 114.555 205.542 114.756C205.506 115.11 205.585 115.467 205.768 115.772C205.951 116.077 206.227 116.316 206.556 116.451C207.888 116.895 209.273 117.328 210.711 117.75C212.811 118.35 214.866 118.866 216.81 119.301L217.743 111.144Z" fill="var(--fill-0, #FFDDCF)"/>
<path id="Vector_102" d="M210.204 115.2H210.099L206.121 114.249C206.064 114.236 206.011 114.211 205.964 114.177C205.917 114.143 205.877 114.1 205.846 114.051C205.816 114.001 205.795 113.946 205.786 113.889C205.777 113.832 205.779 113.773 205.792 113.716C205.806 113.66 205.83 113.607 205.864 113.56C205.898 113.512 205.941 113.472 205.991 113.442C206.04 113.411 206.095 113.391 206.152 113.382C206.21 113.372 206.268 113.375 206.325 113.388L210.3 114.321C210.419 114.335 210.528 114.396 210.602 114.491C210.677 114.585 210.71 114.706 210.696 114.825C210.682 114.944 210.621 115.053 210.526 115.127C210.431 115.202 210.311 115.235 210.192 115.221L210.204 115.2Z" fill="var(--fill-0, #EE4D75)"/>
<path id="Vector_103" d="M247.725 175.2C249.43 178.972 252.439 182.002 256.2 183.732L273.039 166.932C272.007 166.344 271.038 165.653 270.147 164.868C269.075 163.936 268.125 162.871 267.321 161.7C266.3 160.145 265.573 158.417 265.176 156.6L247.725 175.2Z" fill="var(--fill-0, #115655)"/>
<path id="Vector_104" d="M293.607 201.042L292.8 218.898C292.775 219.484 292.932 220.064 293.25 220.558C293.568 221.051 294.031 221.433 294.576 221.652V221.652C295.273 221.938 296.055 221.936 296.751 221.646C297.446 221.357 297.999 220.803 298.287 220.107V220.08L308.535 194.472C308.959 193.402 308.957 192.21 308.529 191.141C308.101 190.073 307.28 189.209 306.234 188.727L300.3 186L293.607 201.042Z" fill="var(--fill-0, #FFC3D3)"/>
<path id="Vector_105" d="M253.851 182.796L268.107 163.719L302.907 186.42L292.212 204.945L253.851 182.796Z" fill="var(--fill-0, #115655)"/>
<path id="Vector_106" d="M296.607 210.534L293.607 210.216C293.548 210.21 293.491 210.192 293.438 210.164C293.386 210.135 293.34 210.097 293.303 210.051C293.265 210.004 293.238 209.951 293.221 209.894C293.204 209.837 293.199 209.777 293.205 209.718C293.211 209.659 293.229 209.602 293.258 209.55C293.286 209.498 293.324 209.451 293.371 209.414C293.417 209.377 293.47 209.349 293.527 209.332C293.584 209.315 293.644 209.31 293.703 209.316L296.703 209.643C296.82 209.655 296.927 209.712 297.002 209.802C297.077 209.893 297.113 210.009 297.102 210.126V210.126C297.088 210.245 297.029 210.354 296.937 210.43C296.844 210.506 296.726 210.544 296.607 210.534V210.534Z" fill="var(--fill-0, #EE4D75)"/>
<path id="Vector_107" d="M296.793 206.22L293.775 205.899C293.655 205.886 293.546 205.826 293.471 205.733C293.395 205.64 293.36 205.52 293.373 205.401C293.385 205.281 293.445 205.172 293.538 205.096C293.632 205.021 293.751 204.986 293.871 204.999L296.871 205.329C296.929 205.334 296.985 205.351 297.037 205.378C297.088 205.405 297.134 205.442 297.171 205.487C297.208 205.532 297.236 205.584 297.253 205.639C297.27 205.695 297.275 205.754 297.27 205.812V205.812C297.258 205.928 297.201 206.035 297.113 206.111C297.024 206.187 296.909 206.226 296.793 206.22V206.22Z" fill="var(--fill-0, #EE4D75)"/>
<path id="Vector_108" d="M295.896 221.313H295.746C295.691 221.294 295.641 221.263 295.597 221.224C295.554 221.185 295.519 221.138 295.494 221.085C295.469 221.032 295.455 220.975 295.453 220.917C295.45 220.859 295.459 220.801 295.479 220.746L306.738 190.146C306.755 190.088 306.784 190.034 306.822 189.987C306.861 189.94 306.909 189.902 306.963 189.875C307.017 189.847 307.076 189.831 307.136 189.827C307.197 189.823 307.258 189.832 307.315 189.852C307.372 189.873 307.424 189.905 307.468 189.946C307.512 189.988 307.547 190.038 307.572 190.094C307.596 190.149 307.608 190.209 307.608 190.27C307.608 190.33 307.596 190.39 307.572 190.446L296.313 221.046C296.28 221.128 296.222 221.198 296.147 221.246C296.072 221.294 295.985 221.317 295.896 221.313V221.313Z" fill="var(--fill-0, #EE4D75)"/>
<path id="Vector_109" d="M254.874 183.453C254.766 183.453 254.658 183.435 254.556 183.399C251.142 182.015 248.316 179.485 246.564 176.244C246.183 175.683 243.795 171.912 241.308 161.949L237.498 146.58C237.447 146.46 237.423 146.33 237.427 146.2C237.431 146.07 237.463 145.942 237.521 145.825C237.579 145.709 237.662 145.606 237.764 145.524C237.866 145.443 237.984 145.385 238.11 145.353C238.237 145.322 238.369 145.319 238.497 145.343C238.625 145.368 238.746 145.42 238.852 145.497C238.958 145.573 239.046 145.671 239.11 145.784C239.174 145.898 239.213 146.024 239.223 146.154L243.03 161.523C245.589 171.723 248.031 175.239 248.046 175.275L248.127 175.401C250.284 179.841 255.114 181.722 255.168 181.74C255.348 181.823 255.495 181.964 255.587 182.14C255.679 182.315 255.71 182.516 255.676 182.712C255.642 182.907 255.544 183.085 255.398 183.219C255.252 183.354 255.066 183.436 254.868 183.453H254.874Z" fill="var(--fill-0, #0C4948)"/>
<path id="Vector_110" d="M137.433 66.8013C137.433 66.8013 135.657 84.2583 152.82 85.0023C152.82 85.0203 152.226 69.7563 137.433 66.8013Z" fill="var(--fill-0, #0C4525)"/>
<path id="Vector_111" d="M162.489 102.105C164.559 102.105 166.236 100.428 166.236 98.3583C166.236 96.2889 164.559 94.6113 162.489 94.6113C160.42 94.6113 158.742 96.2889 158.742 98.3583C158.742 100.428 160.42 102.105 162.489 102.105Z" fill="var(--fill-0, #F7C1FC)"/>
<path id="Vector_112" d="M180.364 83.296C185.706 78.9739 188 72.9548 185.489 69.852C182.979 66.7493 176.613 67.7378 171.272 72.06C165.931 76.3822 163.636 82.4013 166.147 85.504C168.658 88.6068 175.023 87.6182 180.364 83.296Z" fill="var(--fill-0, #EE4D75)"/>
<path id="Vector_113" d="M179.95 82.6324C181.841 81.1024 182.449 78.7187 181.307 77.3084C180.166 75.8981 177.708 75.9951 175.817 77.5251C173.927 79.0551 173.319 81.4387 174.46 82.8491C175.601 84.2594 178.059 84.1624 179.95 82.6324Z" fill="var(--fill-0, #FFA1A1)"/>
<path id="Vector_114" d="M175.184 77.7361C177.074 76.2061 177.682 73.8225 176.541 72.4122C175.399 71.0018 172.941 71.0988 171.051 72.6288C169.16 74.1589 168.552 76.5425 169.694 77.9528C170.835 79.3632 173.293 79.2661 175.184 77.7361Z" fill="var(--fill-0, #FFA1A1)"/>
<path id="Vector_115" d="M181.047 75.4652C182.463 75.4652 183.612 74.3168 183.612 72.9002C183.612 71.4836 182.463 70.3352 181.047 70.3352C179.63 70.3352 178.482 71.4836 178.482 72.9002C178.482 74.3168 179.63 75.4652 181.047 75.4652Z" fill="var(--fill-0, #FFA1A1)"/>
<path id="Vector_116" d="M169.851 84.5223C171.267 84.5223 172.416 83.3739 172.416 81.9573C172.416 80.5407 171.267 79.3923 169.851 79.3923C168.434 79.3923 167.286 80.5407 167.286 81.9573C167.286 83.3739 168.434 84.5223 169.851 84.5223Z" fill="var(--fill-0, #FFA1A1)"/>
<path id="Vector_117" d="M152.82 85.4462C152.755 85.4466 152.691 85.4326 152.632 85.405C152.574 85.3775 152.522 85.3373 152.481 85.2872L137.1 67.0862C137.062 67.0413 137.033 66.9893 137.015 66.9333C136.997 66.8773 136.99 66.8182 136.995 66.7596C137 66.7009 137.016 66.6438 137.043 66.5915C137.07 66.5392 137.107 66.4927 137.152 66.4547C137.197 66.4167 137.249 66.3879 137.305 66.37C137.361 66.352 137.42 66.3453 137.479 66.3502C137.537 66.355 137.595 66.3714 137.647 66.3984C137.699 66.4253 137.746 66.4623 137.784 66.5072L153.171 84.7112C153.246 84.8022 153.283 84.9189 153.273 85.0366C153.264 85.1542 153.209 85.2635 153.12 85.3412C153.037 85.4128 152.929 85.4503 152.82 85.4462V85.4462Z" fill="var(--fill-0, #1A7F7D)"/>
<path id="Vector_118" d="M175.416 47.037C175.416 47.037 157.962 45.261 157.215 62.424C157.2 62.424 172.461 61.827 175.416 47.037Z" fill="var(--fill-0, #0C4525)"/>
<path id="Vector_119" d="M157.2 62.8683C157.082 62.8667 156.969 62.8185 156.887 62.7342C156.804 62.6499 156.758 62.5364 156.759 62.4183C156.761 62.3551 156.775 62.2929 156.802 62.2356C156.829 62.1784 156.867 62.1272 156.915 62.0853L175.119 46.6893C175.164 46.6515 175.216 46.6229 175.272 46.6052C175.328 46.5874 175.386 46.5808 175.445 46.5859C175.503 46.5909 175.56 46.6074 175.613 46.6344C175.665 46.6614 175.711 46.6984 175.749 46.7433C175.787 46.7882 175.815 46.8402 175.833 46.8961C175.851 46.9521 175.857 47.011 175.852 47.0695C175.847 47.128 175.831 47.185 175.804 47.2371C175.777 47.2892 175.74 47.3355 175.695 47.3733L157.5 62.7603C157.416 62.8308 157.309 62.8691 157.2 62.8683V62.8683Z" fill="var(--fill-0, #1A7F7D)"/>
<path id="Vector_120" d="M144.705 50.7838C146.775 50.7838 148.452 49.1062 148.452 47.0368C148.452 44.9674 146.775 43.2898 144.705 43.2898C142.636 43.2898 140.958 44.9674 140.958 47.0368C140.958 49.1062 142.636 50.7838 144.705 50.7838Z" fill="var(--fill-0, #F7C1FC)"/>
</g>
</svg>
